<svg width="20" height="21" viewBox="0 0 20 21" fill="none" xmlns="http://www.w3.org/2000/svg">
<path d="M10.4163 17.0306H9.58301C9.35289 17.0306 9.16634 16.8441 9.16634 16.6139V11.1973H3.74967C3.51956 11.1973 3.33301 11.0107 3.33301 10.7806V9.94727C3.33301 9.71715 3.51956 9.5306 3.74967 9.5306H9.16634V4.11393C9.16634 3.88381 9.35289 3.69727 9.58301 3.69727H10.4163C10.6465 3.69727 10.833 3.88381 10.833 4.11393V9.5306H16.2497C16.4798 9.5306 16.6663 9.71715 16.6663 9.94727V10.7806C16.6663 11.0107 16.4798 11.1973 16.2497 11.1973H10.833V16.6139C10.833 16.8441 10.6465 17.0306 10.4163 17.0306Z" fill="#D4D4D4"/>
</svg>
