<svg xmlns="http://www.w3.org/2000/svg" width="24" height="24" viewBox="0 0 24 24" fill="none">
  <path fill-rule="evenodd" clip-rule="evenodd" d="M8.1 21.2125C9.31667 21.7375 10.6167 22 12 22C13.3833 22 14.6833 21.7375 15.9 21.2125C17.1167 20.6875 18.175 19.975 19.075 19.075C19.975 18.175 20.6875 17.1167 21.2125 15.9C21.7375 14.6833 22 13.3833 22 12C22 10.6167 21.7375 9.31667 21.2125 8.1C20.6875 6.88333 19.975 5.825 19.075 4.925C18.175 4.025 17.1167 3.3125 15.9 2.7875C14.6833 2.2625 13.3833 2 12 2C10.6167 2 9.31667 2.2625 8.1 2.7875C6.88333 3.3125 5.825 4.025 4.925 4.925C4.025 5.825 3.3125 6.88333 2.7875 8.1C2.2625 9.31667 2 10.6167 2 12C2 13.3833 2.2625 14.6833 2.7875 15.9C3.3125 17.1167 4.025 18.175 4.925 19.075C5.825 19.975 6.88333 20.6875 8.1 21.2125ZM11.5 17H12.5C12.7761 17 13 16.7761 13 16.5V13H16.5C16.7761 13 17 12.7761 17 12.5V11.5C17 11.2239 16.7761 11 16.5 11H13V7.5C13 7.22386 12.7761 7 12.5 7H11.5C11.2239 7 11 7.22386 11 7.5V11H7.5C7.22386 11 7 11.2239 7 11.5V12.5C7 12.7761 7.22386 13 7.5 13H11V16.5C11 16.7761 11.2239 17 11.5 17Z" fill="current"/>
</svg>