<svg width="25" height="24" viewBox="0 0 25 24" fill="none" xmlns="http://www.w3.org/2000/svg">
<path d="M12.3104 17C12.5938 17 12.8313 16.9042 13.0229 16.7125C13.2146 16.5208 13.3104 16.2833 13.3104 16C13.3104 15.7167 13.2146 15.4792 13.0229 15.2875C12.8313 15.0958 12.5938 15 12.3104 15C12.0271 15 11.7896 15.0958 11.5979 15.2875C11.4063 15.4792 11.3104 15.7167 11.3104 16C11.3104 16.2833 11.4063 16.5208 11.5979 16.7125C11.7896 16.9042 12.0271 17 12.3104 17ZM11.3104 13H13.3104V7H11.3104V13ZM12.3104 22C10.9271 22 9.62709 21.7375 8.41042 21.2125C7.19376 20.6875 6.13542 19.975 5.23542 19.075C4.33542 18.175 3.62292 17.1167 3.09792 15.9C2.57292 14.6833 2.31042 13.3833 2.31042 12C2.31042 10.6167 2.57292 9.31667 3.09792 8.1C3.62292 6.88333 4.33542 5.825 5.23542 4.925C6.13542 4.025 7.19376 3.3125 8.41042 2.7875C9.62709 2.2625 10.9271 2 12.3104 2C13.6938 2 14.9938 2.2625 16.2104 2.7875C17.4271 3.3125 18.4854 4.025 19.3854 4.925C20.2854 5.825 20.9979 6.88333 21.5229 8.1C22.0479 9.31667 22.3104 10.6167 22.3104 12C22.3104 13.3833 22.0479 14.6833 21.5229 15.9C20.9979 17.1167 20.2854 18.175 19.3854 19.075C18.4854 19.975 17.4271 20.6875 16.2104 21.2125C14.9938 21.7375 13.6938 22 12.3104 22ZM12.3104 20C14.5438 20 16.4354 19.225 17.9854 17.675C19.5354 16.125 20.3104 14.2333 20.3104 12C20.3104 9.76667 19.5354 7.875 17.9854 6.325C16.4354 4.775 14.5438 4 12.3104 4C10.0771 4 8.18543 4.775 6.63543 6.325C5.08542 7.875 4.31042 9.76667 4.31042 12C4.31042 14.2333 5.08542 16.125 6.63543 17.675C8.18543 19.225 10.0771 20 12.3104 20Z" fill="current"/>
</svg>
