<svg width="32" height="32" viewBox="0 0 32 32" fill="none" xmlns="http://www.w3.org/2000/svg">
<path d="M8.14766 13.3477C7.84607 13.3477 7.578 13.4665 7.37694 13.6872C7.15912 13.9079 7.05859 14.1795 7.05859 14.5021C7.05859 14.8246 7.15912 15.0793 7.37694 15.317C7.59475 15.5377 7.84607 15.6565 8.14766 15.6565C8.44925 15.6565 8.71733 15.5377 8.93514 15.317C9.15296 15.0963 9.27024 14.8246 9.27024 14.5021C9.27024 14.1795 9.15296 13.9079 8.93514 13.6872C8.71733 13.4495 8.46601 13.3477 8.14766 13.3477Z" fill="#737373"/>
<path d="M17.5461 13.332C17.2445 13.332 16.9764 13.4509 16.7754 13.6716C16.5576 13.8923 16.457 14.1639 16.457 14.4865C16.457 14.809 16.5576 15.0637 16.7754 15.3013C16.9932 15.522 17.2445 15.6409 17.5461 15.6409C17.8477 15.6409 18.1158 15.522 18.3336 15.3013C18.5514 15.0806 18.6687 14.809 18.6687 14.4865C18.6687 14.1639 18.5514 13.9092 18.3336 13.6716C18.1325 13.4339 17.8644 13.332 17.5461 13.332Z" fill="#737373"/>
<path d="M23.8313 13.3477C23.5297 13.3477 23.2616 13.4665 23.0605 13.6872C22.8427 13.9079 22.7422 14.1795 22.7422 14.5021C22.7422 14.8246 22.8427 15.0793 23.0605 15.317C23.2783 15.5377 23.5297 15.6565 23.8313 15.6565C24.1329 15.6565 24.4009 15.5377 24.6187 15.317C24.8366 15.0963 24.9538 14.8246 24.9538 14.5021C24.9538 14.1795 24.8366 13.9079 24.6187 13.6872C24.4009 13.4495 24.1329 13.3477 23.8313 13.3477Z" fill="#737373"/>
<path d="M26.6132 4.96094H5.36796C3.74274 4.96094 2.40234 6.31908 2.40234 7.96583V20.1382C2.40234 21.785 3.74274 23.1431 5.36796 23.1431H13.7119C13.7119 23.1431 15.3204 27.608 15.9068 27.608C16.4932 27.608 18.2357 23.1431 18.2357 23.1431H26.6132C28.2384 23.1431 29.5788 21.785 29.5788 20.1382V7.96583C29.5788 6.31908 28.2384 4.96094 26.6132 4.96094ZM10.2939 16.1996C9.87504 16.6749 9.22159 16.8787 8.51789 16.8787C7.8812 16.8787 7.41206 16.6919 7.07696 16.4203H7.06021V16.7598H5.46849V9.71444H7.06021V12.4138H7.09372C7.52935 12.0403 8.09901 11.9214 8.76921 11.8875C9.33888 11.8705 9.94206 12.227 10.3107 12.6514C10.6625 13.0759 10.9306 13.7379 10.9306 14.4679C10.9306 15.2659 10.7295 15.7242 10.2939 16.1996ZM13.7287 16.8277H12.1034C12.1034 16.8277 12.1034 13.1268 12.1034 12.4647C12.1034 11.4631 11.316 11.3272 11.316 11.3272V9.57863C11.316 9.57863 13.5946 9.71444 13.7287 12.5156C13.7287 13.3135 13.7287 16.8277 13.7287 16.8277ZM20.1123 15.4866C19.9782 15.8091 19.7772 16.0807 19.5091 16.3354C19.2578 16.5731 18.9562 16.7598 18.6211 16.8956C18.286 17.0314 17.9341 17.0994 17.5655 17.0994C17.1969 17.0994 16.8451 17.0314 16.5267 16.8956C16.1916 16.7598 15.89 16.5731 15.6387 16.3354C15.3706 16.0807 15.1696 15.7921 15.0355 15.4866C14.9015 15.181 14.8345 14.8414 14.8345 14.4849C14.8345 14.1284 14.9015 13.8059 15.0355 13.4833C15.1696 13.1777 15.3706 12.8891 15.6387 12.6345C15.9068 12.3968 16.1916 12.21 16.5267 12.0742C16.8618 11.9384 17.2137 11.8705 17.5655 11.8705C17.9341 11.8705 18.286 11.9384 18.6211 12.0742C18.9562 12.21 19.2578 12.3968 19.5091 12.6345C19.7772 12.8891 19.9615 13.1607 20.1123 13.4833C20.2463 13.8059 20.3133 14.1284 20.3133 14.4849C20.3133 14.8414 20.2463 15.164 20.1123 15.4866ZM26.5127 16.1826C26.5127 17.4219 26.2781 18.1689 25.7419 18.6952C25.0885 19.3233 24.167 19.3573 23.3963 19.2554V17.9821C24.0497 18.0501 24.9377 17.6087 24.9377 16.7598V16.4373H24.9209C24.5523 16.9466 24.0329 17.1333 23.3125 17.1333C22.659 17.1333 22.0894 16.8956 21.704 16.4373C21.3186 15.9789 21.1343 15.3677 21.1343 14.6038C21.1343 13.7379 21.3522 13.0589 21.771 12.5496C22.2067 12.0403 22.8098 11.8026 23.5135 11.8026C24.1335 11.8026 24.5356 11.9554 24.9209 12.3119H24.9377V11.9214H26.5294V16.1826H26.5127Z" fill="#737373"/>
</svg>
