<svg width="16" height="16" viewBox="0 0 16 16" fill="none" xmlns="http://www.w3.org/2000/svg">
<path d="M9.36716 10.0672C9.52337 10.2234 9.77663 10.2234 9.93284 10.0672L10.0672 9.93284C10.2234 9.77663 10.2234 9.52337 10.0672 9.36716L8.61716 7.91716C8.54214 7.84214 8.5 7.7404 8.5 7.63431V5.9C8.5 5.67909 8.32091 5.5 8.1 5.5H7.9C7.67909 5.5 7.5 5.67909 7.5 5.9V8.03432C7.5 8.1404 7.54214 8.24214 7.61716 8.31716L9.36716 10.0672ZM8 13C7.30833 13 6.65833 12.8688 6.05 12.6062C5.44167 12.3438 4.9125 11.9875 4.4625 11.5375C4.0125 11.0875 3.65625 10.5583 3.39375 9.95C3.13125 9.34167 3 8.69167 3 8C3 7.30833 3.13125 6.65833 3.39375 6.05C3.65625 5.44167 4.0125 4.9125 4.4625 4.4625C4.9125 4.0125 5.44167 3.65625 6.05 3.39375C6.65833 3.13125 7.30833 3 8 3C8.69167 3 9.34167 3.13125 9.95 3.39375C10.5583 3.65625 11.0875 4.0125 11.5375 4.4625C11.9875 4.9125 12.3438 5.44167 12.6062 6.05C12.8688 6.65833 13 7.30833 13 8C13 8.69167 12.8688 9.34167 12.6062 9.95C12.3438 10.5583 11.9875 11.0875 11.5375 11.5375C11.0875 11.9875 10.5583 12.3438 9.95 12.6062C9.34167 12.8688 8.69167 13 8 13ZM8 12C9.10833 12 10.0521 11.6104 10.8313 10.8313C11.6104 10.0521 12 9.10833 12 8C12 6.89167 11.6104 5.94792 10.8313 5.16875C10.0521 4.38958 9.10833 4 8 4C6.89167 4 5.94792 4.38958 5.16875 5.16875C4.38958 5.94792 4 6.89167 4 8C4 9.10833 4.38958 10.0521 5.16875 10.8313C5.94792 11.6104 6.89167 12 8 12Z" fill="current"/>
</svg>
