<svg width="16" height="17" viewBox="0 0 16 17" fill="none" xmlns="http://www.w3.org/2000/svg">
<path d="M2 7.19759C2 7.74988 2.44772 8.19759 3 8.19759H6.33333C6.88562 8.19759 7.33333 7.74988 7.33333 7.19759V3.86426C7.33333 3.31197 6.88562 2.86426 6.33333 2.86426H3C2.44772 2.86426 2 3.31197 2 3.86426V7.19759ZM3.33333 4.19759H6V6.86426H3.33333V4.19759Z" fill="#737373"/>
<path d="M9.6665 2.86426C9.11422 2.86426 8.6665 3.31197 8.6665 3.86426V7.19759C8.6665 7.74988 9.11422 8.19759 9.6665 8.19759H12.9998C13.5521 8.19759 13.9998 7.74988 13.9998 7.19759V3.86426C13.9998 3.31197 13.5521 2.86426 12.9998 2.86426H9.6665ZM12.6665 6.86426H9.99984V4.19759H12.6665V6.86426Z" fill="#737373"/>
<path d="M2 13.8646C2 14.4169 2.44772 14.8646 3 14.8646H6.33333C6.88562 14.8646 7.33333 14.4169 7.33333 13.8646V10.5313C7.33333 9.97897 6.88562 9.53125 6.33333 9.53125H3C2.44772 9.53125 2 9.97897 2 10.5313V13.8646ZM3.33333 10.8646H6V13.5312H3.33333V10.8646Z" fill="#737373"/>
<path d="M8.6665 13.8646C8.6665 14.4169 9.11422 14.8646 9.6665 14.8646H12.9998C13.5521 14.8646 13.9998 14.4169 13.9998 13.8646V10.5313C13.9998 9.97897 13.5521 9.53125 12.9998 9.53125H9.6665C9.11422 9.53125 8.6665 9.97897 8.6665 10.5313V13.8646ZM9.99984 10.8646H12.6665V13.5312H9.99984V10.8646Z" fill="#737373"/>
</svg>
