<svg width="28" height="29" viewBox="0 0 28 29" fill="none" xmlns="http://www.w3.org/2000/svg">
<path d="M23.9167 21.8643C24.2388 21.8643 24.5 21.6031 24.5 21.2809V20.1143C24.5 19.7921 24.2388 19.5309 23.9167 19.5309H15.75C15.4278 19.5309 15.1667 19.7921 15.1667 20.1143V21.2809C15.1667 21.6031 15.4278 21.8643 15.75 21.8643H23.9167ZM23.9167 16.0309C24.2388 16.0309 24.5 15.7698 24.5 15.4476V14.2809C24.5 13.9588 24.2388 13.6976 23.9167 13.6976H11.0976C10.7754 13.6976 10.5143 13.9588 10.5143 14.2809V15.4476C10.5143 15.7698 10.7754 16.0309 11.0976 16.0309H23.9167ZM23.9167 10.1976C24.2388 10.1976 24.5 9.93642 24.5 9.61426V8.44759C24.5 8.12542 24.2388 7.86426 23.9167 7.86426H6.42252C6.10035 7.86426 5.83918 8.12543 5.83918 8.44759V9.61426C5.83918 9.93642 6.10035 10.1976 6.42251 10.1976H23.9167Z" fill="#404040"/>
</svg>
