<svg width="24" height="24" viewBox="0 0 24 24" fill="none" xmlns="http://www.w3.org/2000/svg">
<path d="M12.1429 17.2857L7.28284 12.4257C7.12663 12.2695 7.12663 12.0162 7.28284 11.86L11.86 7.28284C12.0162 7.12663 12.2695 7.12663 12.4257 7.28284L12.7143 7.57149C12.8716 7.72879 12.8704 7.98422 12.7115 8.13996L8.62857 12.1429L12.7115 16.1458C12.8704 16.3015 12.8716 16.5569 12.7143 16.7142L12.1429 17.2857Z" fill="current"/>
<path d="M16.9257 17.0029C16.7695 17.1591 16.5162 17.1591 16.36 17.0029L11.7828 12.4257C11.6266 12.2695 11.6266 12.0162 11.7828 11.86L16.36 7.28284C16.5162 7.12663 16.7695 7.12663 16.9257 7.28284L17.2143 7.57149C17.3716 7.72879 17.3704 7.98422 17.2115 8.13996L13.1286 12.1429L17.2115 16.1458C17.3704 16.3015 17.3716 16.5569 17.2143 16.7142L16.9257 17.0029Z" fill="current"/>
</svg>
