<svg width="24" height="24" viewBox="0 0 24 24" fill="none" xmlns="http://www.w3.org/2000/svg">
<path d="M7.5743 17.0029C7.73051 17.1591 7.98378 17.1591 8.13999 17.0029L12.7172 12.4257C12.8734 12.2695 12.8734 12.0162 12.7172 11.86L8.13999 7.28284C7.98378 7.12663 7.73051 7.12663 7.5743 7.28284L7.28566 7.57149C7.12835 7.72879 7.12962 7.98422 7.28847 8.13996L11.3714 12.1429L7.28847 16.1458C7.12962 16.3015 7.12835 16.5569 7.28566 16.7142L7.5743 17.0029Z" fill="current"/>
<path d="M12.0743 17.0029C12.2305 17.1591 12.4838 17.1591 12.64 17.0029L17.2172 12.4257C17.3734 12.2695 17.3734 12.0162 17.2172 11.86L12.64 7.28284C12.4838 7.12663 12.2305 7.12663 12.0743 7.28284L11.7857 7.57149C11.6284 7.72879 11.6296 7.98422 11.7885 8.13996L15.8714 12.1429L11.7885 16.1458C11.6296 16.3015 11.6284 16.5569 11.7857 16.7142L12.0743 17.0029Z" fill="current"/>
</svg>
