<svg width="24" height="24" viewBox="0 0 24 24" fill="none" xmlns="http://www.w3.org/2000/svg">
<path d="M6.2 20.5108C5.7325 20.5108 5.33229 20.3443 4.99938 20.0114C4.66646 19.6785 4.5 19.2783 4.5 18.8108V6.91075C4.5 6.44325 4.66646 6.04304 4.99938 5.71013C5.33229 5.37721 5.7325 5.21075 6.2 5.21075H13.7863L12.0863 6.91075H6.2V18.8108H18.1V12.9033L19.8 11.2033V18.8108C19.8 19.2783 19.6335 19.6785 19.3006 20.0114C18.9677 20.3443 18.5675 20.5108 18.1 20.5108H6.2ZM9.6 15.4108V11.7983L17.3988 3.9995C17.5688 3.8295 17.76 3.702 17.9725 3.617C18.185 3.532 18.3975 3.4895 18.61 3.4895C18.8367 3.4895 19.0527 3.532 19.2581 3.617C19.4635 3.702 19.6512 3.8295 19.8212 3.9995L21.0113 5.21075C21.1671 5.38075 21.2875 5.56846 21.3725 5.77388C21.4575 5.97929 21.5 6.18825 21.5 6.40075C21.5 6.61325 21.461 6.82221 21.3831 7.02763C21.3052 7.23304 21.1813 7.42075 21.0113 7.59075L13.2125 15.4108H9.6ZM11.3 13.7108H12.49L17.42 8.78075L16.825 8.18575L16.2088 7.59075L11.3 12.4995V13.7108Z" fill="#A3A3A3"/>
</svg>
