<svg width="24" height="24" viewBox="0 0 24 24" fill="none" xmlns="http://www.w3.org/2000/svg">
<path d="M4.50002 16.1929C4.22388 16.1929 4.00002 15.9691 4.00002 15.6929L4 14.4577C4 14.1815 4.22386 13.9577 4.5 13.9577H12.2128C12.489 13.9577 12.7128 14.1815 12.7128 14.4577L12.7128 15.6929C12.7128 15.9691 12.489 16.1929 12.2128 16.1929H4.50002ZM4.50002 11.4524C4.22388 11.4524 4.00002 11.2286 4.00002 10.9524V9.81799C4.00002 9.54185 4.22388 9.31799 4.50002 9.31799L17.5289 9.31795C17.805 9.31795 18.0289 9.5418 18.0289 9.81795V10.9524C18.0289 11.2285 17.805 11.4524 17.5289 11.4524L4.50002 11.4524ZM4.50002 6.88782C4.22388 6.88782 4.00002 6.66396 4.00002 6.38782V5.27153C4.00002 4.99539 4.22388 4.77153 4.50002 4.77153L17.5289 4.77149C17.805 4.77149 18.0289 4.99534 18.0289 5.27149V6.38777C18.0289 6.66391 17.805 6.88777 17.5289 6.88777L4.50002 6.88782ZM13.2128 22.3083C12.9367 22.3083 12.7128 22.0844 12.7128 21.8083V19.4609C12.7128 19.1921 12.821 18.9346 13.013 18.7466L18.6666 13.2082C18.8166 13.0582 18.9833 12.9498 19.1666 12.8832C19.35 12.8165 19.5333 12.7832 19.7166 12.7832C19.9166 12.7832 20.1083 12.8207 20.2916 12.8957C20.475 12.9707 20.6416 13.0832 20.7916 13.2332L21.8831 14.4155C22.0165 14.5655 22.1206 14.7321 22.1956 14.9155C22.2706 15.0988 22.3081 15.2821 22.3081 15.4655C22.3081 15.6488 22.2748 15.8363 22.2081 16.028C22.1415 16.2196 22.0331 16.3905 21.8831 16.5405L16.3675 22.0178C16.1801 22.2039 15.9268 22.3083 15.6628 22.3083H13.2128ZM14.5 20.6156H15.45L20.6416 15.3989L20.1916 14.9239L19.7166 14.4739L14.5 19.6656V20.6156Z" fill="#A3A3A3"/>
</svg>
