<svg width="220" height="33" viewBox="0 0 220 33" fill="none" xmlns="http://www.w3.org/2000/svg">
<path d="M6.94477 7.2476H0.269498V2.27224H19.4454V7.2476H12.7494V32H6.94477V7.2476ZM21.4562 2.27224H27.1157V12.1608C28.1937 10.3779 29.9074 9.48651 32.2569 9.48651C33.4178 9.48651 34.406 9.64545 35.2214 9.96332C36.0506 10.2674 36.7278 10.758 37.253 11.4352C37.7782 12.0986 38.1582 12.9554 38.3932 14.0058C38.6419 15.0561 38.7663 16.3276 38.7663 17.8202V32H33.1276V18.5251C33.1276 17.0048 32.8995 15.913 32.4435 15.2496C32.0012 14.5863 31.2618 14.2546 30.2253 14.2546C29.1473 14.2546 28.3595 14.6277 27.862 15.374C27.3645 16.1203 27.1157 17.3227 27.1157 18.9811V32H21.4562V2.27224ZM47.2244 22.92C47.2244 26.1125 48.2333 27.7088 50.2511 27.7088C51.1633 27.7088 51.875 27.3978 52.3864 26.7759C52.9115 26.1401 53.2087 25.2349 53.2778 24.0602H58.6677C58.5986 26.7137 57.8523 28.7384 56.4288 30.1342C55.0192 31.5163 52.9599 32.2073 50.2511 32.2073C47.4179 32.2073 45.2619 31.4057 43.7831 29.8026C42.3182 28.1856 41.5857 25.8292 41.5857 22.7334V18.9811C41.5857 15.8716 42.3182 13.5152 43.7831 11.912C45.2481 10.3088 47.3834 9.50724 50.1889 9.50724C52.9392 9.50724 55.033 10.2397 56.4703 11.7047C57.9214 13.1558 58.6539 15.2635 58.6677 18.0275V22.0078H47.2244V22.92ZM53.2363 18.5665V17.9861C53.2225 16.7284 52.9599 15.7472 52.4486 15.0423C51.951 14.3375 51.2185 13.9851 50.2511 13.9851C49.2699 13.9851 48.5305 14.3444 48.0329 15.0631C47.5354 15.7817 47.2659 16.8943 47.2244 18.4007V18.5665H53.2363Z" fill="#525252"/>
<path d="M122.175 18.9811C122.175 15.8716 122.914 13.5152 124.393 11.912C125.886 10.3088 128.063 9.50724 130.923 9.50724C133.77 9.50724 135.94 10.3088 137.433 11.912C138.925 13.5152 139.672 15.8716 139.672 18.9811V22.8371C139.672 25.9328 138.925 28.2892 137.433 29.9062C135.94 31.5094 133.77 32.311 130.923 32.311C128.063 32.311 125.886 31.5094 124.393 29.9062C122.914 28.2892 122.175 25.9328 122.175 22.8371V18.9811ZM127.814 23.0029C127.814 24.6613 128.069 25.8775 128.581 26.6515C129.106 27.4116 129.887 27.7917 130.923 27.7917C131.96 27.7917 132.734 27.4116 133.245 26.6515C133.757 25.8775 134.012 24.6613 134.012 23.0029V18.7946C134.012 17.1499 133.757 15.9407 133.245 15.1667C132.734 14.3928 131.96 14.0058 130.923 14.0058C129.887 14.0058 129.106 14.3928 128.581 15.1667C128.069 15.9407 127.814 17.1499 127.814 18.7946V23.0029ZM142.636 9.71455H147.902C147.971 10.1015 148.033 10.5161 148.088 10.9584C148.157 11.3868 148.206 11.8222 148.233 12.2644C149.311 10.4125 151.046 9.48651 153.437 9.48651C154.598 9.48651 155.586 9.64545 156.401 9.96332C157.231 10.2674 157.908 10.758 158.433 11.4352C158.958 12.0986 159.338 12.9554 159.573 14.0058C159.822 15.0561 159.946 16.3276 159.946 17.8202V32H154.308V18.5251C154.308 17.0048 154.08 15.913 153.623 15.2496C153.181 14.5863 152.442 14.2546 151.405 14.2546C150.327 14.2546 149.539 14.6277 149.042 15.374C148.544 16.1203 148.296 17.3227 148.296 18.9811V32H142.636V9.71455ZM163.325 9.71455H168.985V32H163.325V9.71455ZM162.911 4.03435C162.911 3.55063 162.987 3.11529 163.139 2.72832C163.305 2.32752 163.526 1.98892 163.802 1.71251C164.092 1.42229 164.438 1.20116 164.839 1.04913C165.24 0.883289 165.682 0.800366 166.165 0.800366C166.649 0.800366 167.085 0.883289 167.472 1.04913C167.872 1.20116 168.211 1.42229 168.487 1.71251C168.778 1.98892 168.999 2.32752 169.151 2.72832C169.317 3.11529 169.399 3.55063 169.399 4.03435C169.399 4.51806 169.317 4.96032 169.151 5.36111C168.999 5.7619 168.778 6.10741 168.487 6.39764C168.211 6.68787 167.872 6.91591 167.472 7.08175C167.085 7.23378 166.649 7.30979 166.165 7.30979C165.184 7.30979 164.396 7.01265 163.802 6.41837C163.208 5.81027 162.911 5.0156 162.911 4.03435ZM179.951 24.5992C179.951 25.152 179.993 25.615 180.076 25.9881C180.172 26.3613 180.331 26.6584 180.553 26.8795C180.774 27.0868 181.071 27.2389 181.444 27.3356C181.817 27.4185 182.28 27.46 182.833 27.46C183.206 27.46 183.565 27.4462 183.911 27.4185C184.256 27.3909 184.54 27.3563 184.761 27.3149V32C184.65 32.0138 184.464 32.0346 184.201 32.0622C183.952 32.0898 183.662 32.1106 183.33 32.1244C183.013 32.152 182.667 32.1728 182.294 32.1866C181.935 32.2004 181.589 32.2073 181.257 32.2073C180.014 32.2073 178.949 32.076 178.065 31.8134C177.18 31.537 176.462 31.1086 175.909 30.5281C175.356 29.9338 174.948 29.1737 174.686 28.2478C174.437 27.3218 174.313 26.1954 174.313 24.8687V14.1094H171.037V9.71455H174.313V4.32458L179.951 3.14293V9.71455H184.74V14.1094H179.951V24.5992ZM186.606 18.9811C186.606 15.8716 187.345 13.5152 188.824 11.912C190.317 10.3088 192.493 9.50724 195.354 9.50724C198.201 9.50724 200.371 10.3088 201.864 11.912C203.356 13.5152 204.103 15.8716 204.103 18.9811V22.8371C204.103 25.9328 203.356 28.2892 201.864 29.9062C200.371 31.5094 198.201 32.311 195.354 32.311C192.493 32.311 190.317 31.5094 188.824 29.9062C187.345 28.2892 186.606 25.9328 186.606 22.8371V18.9811ZM192.245 23.0029C192.245 24.6613 192.5 25.8775 193.012 26.6515C193.537 27.4116 194.318 27.7917 195.354 27.7917C196.391 27.7917 197.165 27.4116 197.676 26.6515C198.187 25.8775 198.443 24.6613 198.443 23.0029V18.7946C198.443 17.1499 198.187 15.9407 197.676 15.1667C197.165 14.3928 196.391 14.0058 195.354 14.0058C194.318 14.0058 193.537 14.3928 193.012 15.1667C192.5 15.9407 192.245 17.1499 192.245 18.7946V23.0029ZM207.067 9.71455H212.333C212.402 10.0877 212.464 10.4954 212.519 10.9377C212.575 11.3661 212.616 11.8014 212.644 12.2437C213.639 10.4332 215.166 9.52797 217.225 9.52797C217.474 9.52797 217.757 9.5487 218.075 9.59016C218.407 9.63162 218.697 9.68691 218.946 9.75601V15.1252C218.794 15.0838 218.614 15.0492 218.407 15.0216C218.199 14.994 217.985 14.9732 217.764 14.9594C217.543 14.9318 217.322 14.911 217.101 14.8972C216.893 14.8834 216.707 14.8765 216.541 14.8765C213.998 14.8765 212.727 16.3829 212.727 19.3958V32H207.067V9.71455Z" fill="#525252"/>
<path fill-rule="evenodd" clip-rule="evenodd" d="M114.144 16.9978C109.747 9.28536 105.202 2.01909 99.9804 12.678C99.2662 14.0483 98.7456 16.7113 97.5793 16.7113V16.6978C96.4131 16.6978 95.8926 14.0348 95.1783 12.6645C89.9569 2.00556 85.4117 9.27183 81.0145 16.9843C80.6836 17.5659 80.3658 18.121 80.0938 18.6034C90.1705 12.2085 89.3222 31.528 97.5793 31.6815V31.695C105.837 31.5415 104.988 12.222 115.065 18.6168C114.793 18.1345 114.475 17.5794 114.144 16.9978Z" fill="#525252"/>
<path d="M80.1256 18.5827C84.9873 15.5175 87.2989 18.455 89.3261 22.3187C87.6485 25.3808 86.5387 27.2494 85.9965 27.9246C84.9742 29.1984 83.8588 30.1628 82.4871 30.7192C79.6033 32.0779 76.0184 32.1414 73.25 30.4616L80.1256 18.5827Z" fill="#525252"/>
<path fill-rule="evenodd" clip-rule="evenodd" d="M114.683 31.6945C117.202 31.6945 119.244 29.6471 119.244 27.1217C119.244 24.5962 117.202 22.5488 114.683 22.5488C112.163 22.5488 110.121 24.5962 110.121 27.1217C110.121 29.6471 112.163 31.6945 114.683 31.6945Z" fill="#525252"/>
</svg>
