<svg width="191" height="28" viewBox="0 0 191 28" fill="none" xmlns="http://www.w3.org/2000/svg">
<path d="M5.99884 5.61905H0.232791V1.32137H16.7968V5.61905H11.0128V27H5.99884V5.61905ZM18.5337 1.32137H23.4223V9.86301C24.3535 8.32301 25.8338 7.55301 27.8633 7.55301C28.8661 7.55301 29.7196 7.69029 30.424 7.96487C31.1403 8.2275 31.7252 8.6513 32.1789 9.23626C32.6325 9.80929 32.9608 10.5494 33.1637 11.4567C33.3786 12.364 33.4861 13.4623 33.4861 14.7516V27H28.6154V15.3605C28.6154 14.0473 28.4184 13.1042 28.0244 12.5312C27.6424 11.9581 27.0037 11.6716 26.1084 11.6716C25.1772 11.6716 24.4968 11.9939 24.067 12.6386C23.6372 13.2832 23.4223 14.3218 23.4223 15.7544V27H18.5337V1.32137ZM40.7921 19.1567C40.7921 21.9144 41.6636 23.2933 43.4065 23.2933C44.1945 23.2933 44.8093 23.0246 45.251 22.4874C45.7046 21.9383 45.9613 21.1564 46.021 20.1416H50.6768C50.6171 22.4337 49.9724 24.1826 48.7428 25.3884C47.5252 26.5822 45.7464 27.1791 43.4065 27.1791C40.9593 27.1791 39.0969 26.4867 37.8196 25.1019C36.5541 23.7051 35.9214 21.6697 35.9214 18.9956V15.7544C35.9214 13.0684 36.5541 11.0329 37.8196 9.64812C39.085 8.26332 40.9294 7.57091 43.3528 7.57091C45.7285 7.57091 47.5371 8.20363 48.7786 9.46906C50.0321 10.7225 50.6648 12.5431 50.6768 14.9307V18.3688H40.7921V19.1567ZM45.9852 15.3963V14.8949C45.9732 13.8085 45.7464 12.9609 45.3047 12.3521C44.8749 11.7432 44.2422 11.4388 43.4065 11.4388C42.559 11.4388 41.9203 11.7492 41.4905 12.37C41.0607 12.9908 40.8279 13.9518 40.7921 15.253V15.3963H45.9852Z" fill="#525252"/>
<path d="M105.539 15.7544C105.539 13.0684 106.177 11.0329 107.455 9.64812C108.744 8.26332 110.624 7.57091 113.095 7.57091C115.555 7.57091 117.429 8.26332 118.718 9.64812C120.007 11.0329 120.652 13.0684 120.652 15.7544V19.0851C120.652 21.7592 120.007 23.7946 118.718 25.1914C117.429 26.5762 115.555 27.2686 113.095 27.2686C110.624 27.2686 108.744 26.5762 107.455 25.1914C106.177 23.7946 105.539 21.7592 105.539 19.0851V15.7544ZM110.409 19.2284C110.409 20.6609 110.63 21.7115 111.072 22.38C111.526 23.0366 112.2 23.3649 113.095 23.3649C113.991 23.3649 114.659 23.0366 115.101 22.38C115.543 21.7115 115.763 20.6609 115.763 19.2284V15.5932C115.763 14.1726 115.543 13.1281 115.101 12.4595C114.659 11.791 113.991 11.4567 113.095 11.4567C112.2 11.4567 111.526 11.791 111.072 12.4595C110.63 13.1281 110.409 14.1726 110.409 15.5932V19.2284ZM123.213 7.74998H127.761C127.821 8.08425 127.875 8.44239 127.922 8.8244C127.982 9.19448 128.024 9.57053 128.048 9.95254C128.979 8.35285 130.477 7.55301 132.542 7.55301C133.545 7.55301 134.399 7.69029 135.103 7.96487C135.819 8.2275 136.404 8.6513 136.858 9.23626C137.312 9.80929 137.64 10.5494 137.843 11.4567C138.058 12.364 138.165 13.4623 138.165 14.7516V27H133.294V15.3605C133.294 14.0473 133.097 13.1042 132.704 12.5312C132.321 11.9581 131.683 11.6716 130.787 11.6716C129.856 11.6716 129.176 11.9939 128.746 12.6386C128.316 13.2832 128.101 14.3218 128.101 15.7544V27H123.213V7.74998ZM141.084 7.74998H145.973V27H141.084V7.74998ZM140.726 2.84347C140.726 2.42564 140.792 2.04959 140.923 1.71533C141.066 1.36913 141.257 1.07664 141.496 0.837885C141.747 0.587187 142.045 0.396179 142.391 0.264861C142.737 0.121605 143.119 0.0499774 143.537 0.0499774C143.955 0.0499774 144.331 0.121605 144.665 0.264861C145.012 0.396179 145.304 0.587187 145.543 0.837885C145.794 1.07664 145.985 1.36913 146.116 1.71533C146.259 2.04959 146.331 2.42564 146.331 2.84347C146.331 3.2613 146.259 3.64331 146.116 3.98952C145.985 4.33572 145.794 4.63417 145.543 4.88487C145.304 5.13556 145.012 5.33254 144.665 5.4758C144.331 5.60711 143.955 5.67277 143.537 5.67277C142.69 5.67277 142.009 5.41611 141.496 4.90277C140.983 4.3775 140.726 3.69107 140.726 2.84347ZM155.445 20.6072C155.445 21.0847 155.481 21.4846 155.553 21.807C155.636 22.1293 155.774 22.386 155.965 22.577C156.156 22.756 156.412 22.8874 156.735 22.9709C157.057 23.0426 157.457 23.0784 157.934 23.0784C158.257 23.0784 158.567 23.0664 158.866 23.0426C159.164 23.0187 159.409 22.9888 159.6 22.953V27C159.504 27.0119 159.343 27.0298 159.116 27.0537C158.901 27.0776 158.651 27.0955 158.364 27.1074C158.09 27.1313 157.791 27.1492 157.469 27.1612C157.158 27.1731 156.86 27.1791 156.574 27.1791C155.499 27.1791 154.58 27.0657 153.816 26.8388C153.052 26.6001 152.431 26.23 151.954 25.7286C151.476 25.2153 151.124 24.5587 150.897 23.7588C150.682 22.959 150.575 21.986 150.575 20.84V11.5463H147.745V7.74998H150.575V3.09417L155.445 2.07347V7.74998H159.582V11.5463H155.445V20.6072ZM161.194 15.7544C161.194 13.0684 161.832 11.0329 163.11 9.64812C164.399 8.26332 166.279 7.57091 168.75 7.57091C171.21 7.57091 173.084 8.26332 174.373 9.64812C175.662 11.0329 176.307 13.0684 176.307 15.7544V19.0851C176.307 21.7592 175.662 23.7946 174.373 25.1914C173.084 26.5762 171.21 27.2686 168.75 27.2686C166.279 27.2686 164.399 26.5762 163.11 25.1914C161.832 23.7946 161.194 21.7592 161.194 19.0851V15.7544ZM166.064 19.2284C166.064 20.6609 166.285 21.7115 166.727 22.38C167.18 23.0366 167.855 23.3649 168.75 23.3649C169.646 23.3649 170.314 23.0366 170.756 22.38C171.198 21.7115 171.418 20.6609 171.418 19.2284V15.5932C171.418 14.1726 171.198 13.1281 170.756 12.4595C170.314 11.791 169.646 11.4567 168.75 11.4567C167.855 11.4567 167.18 11.791 166.727 12.4595C166.285 13.1281 166.064 14.1726 166.064 15.5932V19.2284ZM178.868 7.74998H183.416C183.476 8.07231 183.53 8.42448 183.577 8.8065C183.625 9.17657 183.661 9.55262 183.685 9.93464C184.544 8.37076 185.863 7.58882 187.642 7.58882C187.857 7.58882 188.102 7.60673 188.376 7.64254C188.663 7.67836 188.914 7.72611 189.128 7.7858V12.4237C188.997 12.3879 188.842 12.358 188.663 12.3342C188.484 12.3103 188.299 12.2924 188.108 12.2805C187.917 12.2566 187.726 12.2387 187.535 12.2267C187.356 12.2148 187.194 12.2088 187.051 12.2088C184.855 12.2088 183.756 13.5101 183.756 16.1125V27H178.868V7.74998Z" fill="#525252"/>
<path fill-rule="evenodd" clip-rule="evenodd" d="M98.6038 13.9551C94.8056 7.29318 90.8795 1.01663 86.3694 10.2238C85.7524 11.4074 85.3027 13.7077 84.2953 13.7077V13.696C83.2879 13.696 82.8384 11.3957 82.2214 10.2121C77.7111 1.00495 73.785 7.2815 69.9868 13.9435C69.7009 14.4459 69.4264 14.9254 69.1914 15.3421C77.8957 9.81815 77.1628 26.5062 84.2953 26.6388V26.6505C91.4279 26.5179 90.6949 9.82984 99.3992 15.3536C99.1644 14.937 98.8898 14.4576 98.6038 13.9551Z" fill="#525252"/>
<path d="M69.2164 15.3249C73.4159 12.6772 75.4126 15.2146 77.1637 18.552C75.7147 21.197 74.7561 22.8112 74.2877 23.3944C73.4046 24.4946 72.4412 25.3277 71.2563 25.8083C68.7653 26.982 65.6687 27.0368 63.2773 25.5858L69.2164 15.3249Z" fill="#525252"/>
<path fill-rule="evenodd" clip-rule="evenodd" d="M99.0651 26.6499C101.241 26.6499 103.005 24.8814 103.005 22.7C103.005 20.5185 101.241 18.75 99.0651 18.75C96.8891 18.75 95.125 20.5185 95.125 22.7C95.125 24.8814 96.8891 26.6499 99.0651 26.6499" fill="#525252"/>
</svg>
