<svg width="24" height="24" viewBox="0 0 24 24" fill="none" xmlns="http://www.w3.org/2000/svg">
<path d="M4 5.88437C4 5.66346 4.17909 5.48438 4.4 5.48438H19.6C19.8209 5.48438 20 5.66346 20 5.88438V7.42813C20 7.64904 19.8209 7.82812 19.6 7.82812H4.4C4.17909 7.82812 4 7.64904 4 7.42813V5.88437Z" fill="#404040"/>
<path d="M4 11.2281C4 11.0072 4.17909 10.8281 4.4 10.8281H19.6C19.8209 10.8281 20 11.0072 20 11.2281V12.7719C20 12.9928 19.8209 13.1719 19.6 13.1719H4.4C4.17909 13.1719 4 12.9928 4 12.7719V11.2281Z" fill="#404040"/>
<path d="M4 16.5719C4 16.351 4.17909 16.1719 4.4 16.1719H19.6C19.8209 16.1719 20 16.351 20 16.5719V18.1156C20 18.3365 19.8209 18.5156 19.6 18.5156H4.4C4.17909 18.5156 4 18.3365 4 18.1156V16.5719Z" fill="#404040"/>
</svg>
