<svg width="36" height="37" viewBox="0 0 36 37" fill="none" xmlns="http://www.w3.org/2000/svg">
<g clip-path="url(#clip0_2403_14504)">
<g filter="url(#filter0_d_2403_14504)">
<rect x="9" y="5.77344" width="18" height="26.1818" rx="4.90909" fill="current"/>
<rect x="9.81818" y="6.59162" width="16.3636" height="24.5455" rx="4.09091" stroke="#E5E5E5" stroke-width="1.63636"/>
</g>
<path d="M20.6885 15.5921C19.7848 15.5921 19.0522 14.8594 19.0522 13.9557C19.0522 13.052 19.7848 12.3193 20.6885 12.3193C21.5923 12.3193 22.3249 13.052 22.3249 13.9557C22.3249 14.8594 21.5923 15.5921 20.6885 15.5921Z" fill="#A3A3A3"/>
<path d="M15.7794 15.5921C14.8757 15.5921 14.1431 14.8594 14.1431 13.9557C14.1431 13.052 14.8757 12.3193 15.7794 12.3193C16.6832 12.3193 17.4158 13.052 17.4158 13.9557C17.4158 14.8594 16.6832 15.5921 15.7794 15.5921Z" fill="#A3A3A3"/>
<path d="M20.6885 20.5012C19.7848 20.5012 19.0522 19.7685 19.0522 18.8648C19.0522 17.9611 19.7848 17.2284 20.6885 17.2284C21.5923 17.2284 22.3249 17.9611 22.3249 18.8648C22.3249 19.7685 21.5923 20.5012 20.6885 20.5012Z" fill="#A3A3A3"/>
<path d="M15.7794 20.5012C14.8757 20.5012 14.1431 19.7685 14.1431 18.8648C14.1431 17.9611 14.8757 17.2284 15.7794 17.2284C16.6832 17.2284 17.4158 17.9611 17.4158 18.8648C17.4158 19.7685 16.6832 20.5012 15.7794 20.5012Z" fill="#A3A3A3"/>
<path d="M20.6885 25.4102C19.7848 25.4102 19.0522 24.6776 19.0522 23.7739C19.0522 22.8701 19.7848 22.1375 20.6885 22.1375C21.5923 22.1375 22.3249 22.8701 22.3249 23.7739C22.3249 24.6776 21.5923 25.4102 20.6885 25.4102Z" fill="#A3A3A3"/>
<path d="M15.7794 25.4102C14.8757 25.4102 14.1431 24.6776 14.1431 23.7739C14.1431 22.8701 14.8757 22.1375 15.7794 22.1375C16.6832 22.1375 17.4158 22.8701 17.4158 23.7739C17.4158 24.6776 16.6832 25.4102 15.7794 25.4102Z" fill="#A3A3A3"/>
</g>
<defs>
<filter id="filter0_d_2403_14504" x="5" y="2.77344" width="26" height="34.1816" filterUnits="userSpaceOnUse" color-interpolation-filters="sRGB">
<feFlood flood-opacity="0" result="BackgroundImageFix"/>
<feColorMatrix in="SourceAlpha" type="matrix" values="0 0 0 0 0 0 0 0 0 0 0 0 0 0 0 0 0 0 127 0" result="hardAlpha"/>
<feOffset dy="1"/>
<feGaussianBlur stdDeviation="2"/>
<feComposite in2="hardAlpha" operator="out"/>
<feColorMatrix type="matrix" values="0 0 0 0 0 0 0 0 0 0 0 0 0 0 0 0 0 0 0.08 0"/>
<feBlend mode="normal" in2="BackgroundImageFix" result="effect1_dropShadow_2403_14504"/>
<feBlend mode="normal" in="SourceGraphic" in2="effect1_dropShadow_2403_14504" result="shape"/>
</filter>
<clipPath id="clip0_2403_14504">
<rect width="36" height="36" fill="white" transform="translate(0 0.864258)"/>
</clipPath>
</defs>
</svg>
