<svg width="32" height="32" viewBox="0 0 32 32" fill="none" xmlns="http://www.w3.org/2000/svg">
<path d="M15.9998 12.0156C13.8462 12.0156 12.0156 13.8462 12.0156 15.9998C12.0156 18.1535 13.8462 19.984 15.9998 19.984C18.1535 19.984 19.984 18.1535 19.984 15.9998C19.984 13.8462 18.1535 12.0156 15.9998 12.0156Z" fill="#737373"/>
<path d="M21.1104 4.04688H11.005C7.09327 4.04688 4.05078 7.08936 4.05078 10.8925V20.9979C4.05078 24.9096 7.09327 27.9521 11.005 27.9521H21.1104C24.9135 27.9521 27.956 24.9096 27.956 20.9979V10.8925C27.956 7.08936 24.9135 4.04688 21.1104 4.04688ZM16.0034 22.3018C12.5263 22.3018 9.80977 19.4766 9.80977 16.1081C9.80977 12.7397 12.5263 9.80586 16.0034 9.80586C19.4805 9.80586 22.197 12.631 22.197 15.9995C22.197 19.368 19.4805 22.3018 16.0034 22.3018ZM22.4143 11.1098C21.6537 11.1098 21.0018 10.4578 21.0018 9.6972C21.0018 8.93658 21.6537 8.28462 22.4143 8.28462C23.175 8.28462 23.8269 8.93658 23.8269 9.6972C23.8269 10.4578 23.175 11.1098 22.4143 11.1098Z" fill="#737373"/>
</svg>
