<svg width="24" height="24" viewBox="0 0 24 24" fill="none" xmlns="http://www.w3.org/2000/svg">
<path d="M7.99947 9.16035C7.05302 10.0296 6.23703 10.9454 5.57172 11.8623C5.47567 11.9947 5.26823 11.9358 5.26823 11.7723C5.26823 10.8112 5.45059 9.91102 5.81531 9.07159C6.18003 8.23215 6.6779 7.49692 7.30893 6.86589C7.93995 6.23487 8.67808 5.737 9.5233 5.37228C10.3685 5.00756 11.2659 4.8252 12.2153 4.8252C12.822 4.8252 13.4045 4.89789 13.9628 5.04327C14.1481 5.09151 14.1477 5.34373 13.9679 5.40962C12.6943 5.87656 11.3471 6.58857 10.0261 7.52318C9.47115 7.92672 8.38498 8.80824 8.0172 9.14438C8.01119 9.14987 8.00528 9.1552 7.99947 9.16035Z" fill="#0050F0"/>
<path fill-rule="evenodd" clip-rule="evenodd" d="M6.01667 14.8935C6.34701 14.3396 6.76239 13.7565 7.25243 13.1617H9.19332C9.15858 12.9301 9.13253 12.7014 9.11516 12.4756C9.09779 12.2499 9.08911 12.0154 9.08911 11.7723C9.08911 11.5754 9.0948 11.3841 9.10619 11.1986C9.51425 10.8165 9.94803 10.4374 10.4049 10.0658C10.8762 9.68229 11.3507 9.32421 11.8229 8.99343H13.5352C13.4494 8.67862 13.348 8.37485 13.2312 8.08215C13.6448 7.83669 14.052 7.61466 14.449 7.41741C14.4904 7.51637 14.5303 7.61621 14.5686 7.71691C14.7249 8.12794 14.8552 8.55345 14.9594 8.99343H17.0088C16.673 8.41451 16.2533 7.91085 15.7496 7.48245C15.5727 7.332 15.3869 7.19512 15.1922 7.07181C15.7426 6.834 16.2664 6.64933 16.7521 6.52186C16.879 6.63177 17.0022 6.74645 17.1216 6.86589C17.7527 7.49692 18.2505 8.23215 18.6153 9.07159C18.98 9.91102 19.1623 10.8112 19.1623 11.7723C19.1623 12.7217 18.98 13.619 18.6153 14.4642C18.2505 15.3095 17.7527 16.0476 17.1216 16.6786C16.4906 17.3096 15.7554 17.8075 14.916 18.1722C14.0765 18.537 13.1763 18.7193 12.2153 18.7193C11.2659 18.7193 10.3685 18.537 9.5233 18.1722C8.67808 17.8075 7.93995 17.3096 7.30893 16.6786C6.78713 16.1568 6.35638 15.5618 6.01667 14.8935ZM12.9968 15.9926C12.7768 16.4442 12.5163 16.8783 12.2153 17.2952C11.9142 16.8783 11.6537 16.4442 11.4337 15.9926C11.2138 15.541 11.0343 15.0605 10.8953 14.5511H13.5352C13.3963 15.0605 13.2168 15.541 12.9968 15.9926ZM9.86197 15.8276C10.0183 16.2386 10.2006 16.6352 10.4091 17.0173C9.76066 16.8089 9.18463 16.4905 8.68097 16.0621C8.17731 15.6337 7.75759 15.13 7.42182 14.5511H9.4712C9.5754 14.9911 9.70566 15.4166 9.86197 15.8276ZM15.7496 16.0621C15.2459 16.4905 14.6699 16.8089 14.0215 17.0173C14.2299 16.6352 14.4123 16.2386 14.5686 15.8276C14.7249 15.4166 14.8552 14.9911 14.9594 14.5511H17.0088C16.673 15.13 16.2533 15.6337 15.7496 16.0621ZM13.926 12.4756C13.9086 12.7014 13.8826 12.9301 13.8478 13.1617H10.5827C10.548 12.9301 10.5219 12.7014 10.5046 12.4756C10.4872 12.2499 10.4785 12.0154 10.4785 11.7723C10.4785 11.5291 10.4872 11.2946 10.5046 11.0689C10.5219 10.8431 10.548 10.6144 10.5827 10.3828H13.8478C13.8826 10.6144 13.9086 10.8431 13.926 11.0689C13.9434 11.2946 13.9521 11.5291 13.9521 11.7723C13.9521 12.0154 13.9434 12.2499 13.926 12.4756ZM17.5993 13.1617H15.2373C15.272 12.9301 15.298 12.7014 15.3154 12.4756C15.3328 12.2499 15.3415 12.0154 15.3415 11.7723C15.3415 11.5291 15.3328 11.2946 15.3154 11.0689C15.298 10.8431 15.272 10.6144 15.2373 10.3828H17.5993C17.6571 10.6144 17.7006 10.8431 17.7295 11.0689C17.7585 11.2946 17.7729 11.5291 17.7729 11.7723C17.7729 12.0154 17.7585 12.2499 17.7295 12.4756C17.7006 12.7014 17.6571 12.9301 17.5993 13.1617Z" fill="#0050F0"/>
<path d="M9.21824 18.5087C7.45804 19.1512 6.05059 19.1785 5.43729 18.4383C4.25333 17.0094 6.47739 13.2609 10.4049 10.0658C14.3323 6.87069 18.476 5.43897 19.6599 6.86794C19.8657 7.11631 19.9686 7.43476 19.9774 7.8082C20.056 7.12385 19.9316 6.54265 19.577 6.11468C18.163 4.40809 13.6244 5.78435 9.43975 9.18864C5.25511 12.5929 3.00905 16.7361 4.42304 18.4427C5.23325 19.4206 7.06933 19.3863 9.27688 18.5382C9.25721 18.5285 9.23766 18.5187 9.21824 18.5087Z" fill="#0050F0"/>
</svg>
