<svg width="125" height="19" viewBox="0 0 125 19" fill="none" xmlns="http://www.w3.org/2000/svg">
<path d="M3.92578 4.50781H0.152344V1.69531H10.9922V4.50781H7.20703V18.5H3.92578V4.50781ZM12.1289 1.69531H15.3281V7.28516C15.9375 6.27734 16.9062 5.77344 18.2344 5.77344C18.8906 5.77344 19.4492 5.86328 19.9102 6.04297C20.3789 6.21484 20.7617 6.49219 21.0586 6.875C21.3555 7.25 21.5703 7.73438 21.7031 8.32812C21.8438 8.92188 21.9141 9.64062 21.9141 10.4844V18.5H18.7266V10.8828C18.7266 10.0234 18.5977 9.40625 18.3398 9.03125C18.0898 8.65625 17.6719 8.46875 17.0859 8.46875C16.4766 8.46875 16.0312 8.67969 15.75 9.10156C15.4688 9.52344 15.3281 10.2031 15.3281 11.1406V18.5H12.1289V1.69531ZM26.6953 13.3672C26.6953 15.1719 27.2656 16.0742 28.4062 16.0742C28.9219 16.0742 29.3242 15.8984 29.6133 15.5469C29.9102 15.1875 30.0781 14.6758 30.1172 14.0117H33.1641C33.125 15.5117 32.7031 16.6562 31.8984 17.4453C31.1016 18.2266 29.9375 18.6172 28.4062 18.6172C26.8047 18.6172 25.5859 18.1641 24.75 17.2578C23.9219 16.3438 23.5078 15.0117 23.5078 13.2617V11.1406C23.5078 9.38281 23.9219 8.05078 24.75 7.14453C25.5781 6.23828 26.7852 5.78516 28.3711 5.78516C29.9258 5.78516 31.1094 6.19922 31.9219 7.02734C32.7422 7.84766 33.1562 9.03906 33.1641 10.6016V12.8516H26.6953V13.3672ZM30.0938 10.9062V10.5781C30.0859 9.86719 29.9375 9.3125 29.6484 8.91406C29.3672 8.51562 28.9531 8.31641 28.4062 8.31641C27.8516 8.31641 27.4336 8.51953 27.1523 8.92578C26.8711 9.33203 26.7188 9.96094 26.6953 10.8125V10.9062H30.0938Z" fill="#1E1E23"/>
<path d="M69.0626 11.1406C69.0626 9.38281 69.4806 8.05078 70.3165 7.14453C71.1603 6.23828 72.3907 5.78516 74.0079 5.78516C75.6173 5.78516 76.8439 6.23828 77.6876 7.14453C78.5314 8.05078 78.9532 9.38281 78.9532 11.1406V13.3203C78.9532 15.0703 78.5314 16.4023 77.6876 17.3164C76.8439 18.2227 75.6173 18.6758 74.0079 18.6758C72.3907 18.6758 71.1603 18.2227 70.3165 17.3164C69.4806 16.4023 69.0626 15.0703 69.0626 13.3203V11.1406ZM72.2501 13.4141C72.2501 14.3516 72.3947 15.0391 72.6837 15.4766C72.9806 15.9062 73.422 16.1211 74.0079 16.1211C74.5939 16.1211 75.0314 15.9062 75.3204 15.4766C75.6095 15.0391 75.754 14.3516 75.754 13.4141V11.0352C75.754 10.1055 75.6095 9.42188 75.3204 8.98438C75.0314 8.54688 74.5939 8.32812 74.0079 8.32812C73.422 8.32812 72.9806 8.54688 72.6837 8.98438C72.3947 9.42188 72.2501 10.1055 72.2501 11.0352V13.4141ZM80.629 5.90234H83.6056C83.6447 6.12109 83.6798 6.35547 83.7111 6.60547C83.7501 6.84766 83.7775 7.09375 83.7931 7.34375C84.4025 6.29688 85.3829 5.77344 86.7345 5.77344C87.3907 5.77344 87.9493 5.86328 88.4103 6.04297C88.879 6.21484 89.2618 6.49219 89.5587 6.875C89.8556 7.25 90.0704 7.73438 90.2032 8.32812C90.3439 8.92188 90.4142 9.64062 90.4142 10.4844V18.5H87.2267V10.8828C87.2267 10.0234 87.0978 9.40625 86.84 9.03125C86.59 8.65625 86.172 8.46875 85.5861 8.46875C84.9767 8.46875 84.5314 8.67969 84.2501 9.10156C83.9689 9.52344 83.8282 10.2031 83.8282 11.1406V18.5H80.629V5.90234ZM92.3243 5.90234H95.5236V18.5H92.3243V5.90234ZM92.09 2.69141C92.09 2.41797 92.1329 2.17188 92.2189 1.95312C92.3126 1.72656 92.4376 1.53516 92.5939 1.37891C92.7579 1.21484 92.9532 1.08984 93.1798 1.00391C93.4064 0.910156 93.6564 0.863281 93.9298 0.863281C94.2032 0.863281 94.4493 0.910156 94.6681 1.00391C94.8947 1.08984 95.0861 1.21484 95.2423 1.37891C95.4064 1.53516 95.5314 1.72656 95.6173 1.95312C95.7111 2.17188 95.7579 2.41797 95.7579 2.69141C95.7579 2.96484 95.7111 3.21484 95.6173 3.44141C95.5314 3.66797 95.4064 3.86328 95.2423 4.02734C95.0861 4.19141 94.8947 4.32031 94.6681 4.41406C94.4493 4.5 94.2032 4.54297 93.9298 4.54297C93.3751 4.54297 92.9298 4.375 92.5939 4.03906C92.2579 3.69531 92.09 3.24609 92.09 2.69141ZM101.723 14.3164C101.723 14.6289 101.746 14.8906 101.793 15.1016C101.848 15.3125 101.938 15.4805 102.063 15.6055C102.188 15.7227 102.356 15.8086 102.567 15.8633C102.777 15.9102 103.039 15.9336 103.352 15.9336C103.563 15.9336 103.766 15.9258 103.961 15.9102C104.156 15.8945 104.317 15.875 104.442 15.8516V18.5C104.379 18.5078 104.274 18.5195 104.125 18.5352C103.984 18.5508 103.82 18.5625 103.633 18.5703C103.453 18.5859 103.258 18.5977 103.047 18.6055C102.844 18.6133 102.649 18.6172 102.461 18.6172C101.758 18.6172 101.156 18.543 100.656 18.3945C100.156 18.2383 99.7501 17.9961 99.4376 17.668C99.1251 17.332 98.8947 16.9023 98.7462 16.3789C98.6056 15.8555 98.5353 15.2188 98.5353 14.4688V8.38672H96.6837V5.90234H98.5353V2.85547L101.723 2.1875V5.90234H104.43V8.38672H101.723V14.3164ZM105.484 11.1406C105.484 9.38281 105.902 8.05078 106.738 7.14453C107.582 6.23828 108.813 5.78516 110.43 5.78516C112.039 5.78516 113.266 6.23828 114.109 7.14453C114.953 8.05078 115.375 9.38281 115.375 11.1406V13.3203C115.375 15.0703 114.953 16.4023 114.109 17.3164C113.266 18.2227 112.039 18.6758 110.43 18.6758C108.813 18.6758 107.582 18.2227 106.738 17.3164C105.902 16.4023 105.484 15.0703 105.484 13.3203V11.1406ZM108.672 13.4141C108.672 14.3516 108.817 15.0391 109.106 15.4766C109.402 15.9062 109.844 16.1211 110.43 16.1211C111.016 16.1211 111.453 15.9062 111.742 15.4766C112.031 15.0391 112.176 14.3516 112.176 13.4141V11.0352C112.176 10.1055 112.031 9.42188 111.742 8.98438C111.453 8.54688 111.016 8.32812 110.43 8.32812C109.844 8.32812 109.402 8.54688 109.106 8.98438C108.817 9.42188 108.672 10.1055 108.672 11.0352V13.4141ZM117.051 5.90234H120.027C120.067 6.11328 120.102 6.34375 120.133 6.59375C120.164 6.83594 120.188 7.08203 120.203 7.33203C120.766 6.30859 121.629 5.79688 122.793 5.79688C122.934 5.79688 123.094 5.80859 123.274 5.83203C123.461 5.85547 123.625 5.88672 123.766 5.92578V8.96094C123.68 8.9375 123.578 8.91797 123.461 8.90234C123.344 8.88672 123.223 8.875 123.098 8.86719C122.973 8.85156 122.848 8.83984 122.723 8.83203C122.606 8.82422 122.5 8.82031 122.406 8.82031C120.969 8.82031 120.25 9.67188 120.25 11.375V18.5H117.051V5.90234Z" fill="#1E1E23"/>
<path fill-rule="evenodd" clip-rule="evenodd" d="M64.5223 9.97828C62.0367 5.61854 59.4673 1.51102 56.5158 7.53637C56.1121 8.31096 55.8178 9.81633 55.1585 9.81633V9.80869C54.4992 9.80869 54.205 8.30332 53.8013 7.52872C50.8497 1.50337 48.2803 5.61089 45.7947 9.97063C45.6076 10.2994 45.4279 10.6132 45.2742 10.8859C50.9704 7.27093 50.4909 18.192 55.1585 18.2788V18.2864C59.8263 18.1996 59.3466 7.27858 65.0429 10.8935C64.8892 10.6209 64.7095 10.3071 64.5223 9.97828Z" fill="#0050F0"/>
<path d="M45.2931 10.8737C48.0413 9.14096 49.348 10.8015 50.494 12.9856C49.5457 14.7165 48.9183 15.7729 48.6118 16.1546C48.0339 16.8746 47.4034 17.4197 46.628 17.7343C44.9978 18.5023 42.9713 18.5382 41.4064 17.5887L45.2931 10.8737Z" fill="url(#paint0_linear_2272_46821)"/>
<path fill-rule="evenodd" clip-rule="evenodd" d="M64.8278 18.2861C66.2518 18.2861 67.4063 17.1288 67.4063 15.7012C67.4063 14.2736 66.2518 13.1162 64.8278 13.1162C63.4038 13.1162 62.2493 14.2736 62.2493 15.7012C62.2493 17.1288 63.4038 18.2861 64.8278 18.2861" fill="#0050F0"/>
<defs>
<linearGradient id="paint0_linear_2272_46821" x1="48.8196" y1="6.64255" x2="44.1619" y2="11.5765" gradientUnits="userSpaceOnUse">
<stop stop-color="#00316E"/>
<stop offset="1" stop-color="#0050F0"/>
</linearGradient>
</defs>
</svg>
