<svg width="20" height="20" viewBox="0 0 20 20" fill="none" xmlns="http://www.w3.org/2000/svg">
<path d="M9.99984 10.833L3.33317 6.66634V14.9997H10.8332V16.6663H3.33317C2.87484 16.6663 2.48248 16.5031 2.15609 16.1768C1.8297 15.8504 1.6665 15.458 1.6665 14.9997V4.99967C1.6665 4.54134 1.8297 4.14898 2.15609 3.82259C2.48248 3.4962 2.87484 3.33301 3.33317 3.33301H16.6665C17.1248 3.33301 17.5172 3.4962 17.8436 3.82259C18.17 4.14898 18.3332 4.54134 18.3332 4.99967V10.833H16.6665V6.66634L9.99984 10.833ZM9.99984 9.16634L16.6665 4.99967H3.33317L9.99984 9.16634ZM15.8332 19.1663L14.6665 17.9997L15.979 16.6663H12.4998V14.9997H15.979L14.6457 13.6663L15.8332 12.4997L19.1665 15.833L15.8332 19.1663ZM3.33317 6.66634V15.833V10.833V10.8955V4.99967V6.66634Z" fill="#0050F0"/>
</svg>
