<svg width="20" height="21" viewBox="0 0 20 21" fill="none" xmlns="http://www.w3.org/2000/svg">
<path d="M5 7.90332H3.00004V16.0385C3.00004 17.143 3.89546 18.0384 5 18.0384L5 7.90332Z" fill="#404040"/>
<path fill-rule="evenodd" clip-rule="evenodd" d="M4.49097 16.6604V4.49265V3.47168C4.49097 3.19554 4.71482 2.97168 4.99097 2.97168H6.01193H12.0958H16.6815C16.9577 2.97168 17.1815 3.19554 17.1815 3.47168V17.6814C17.1815 17.9575 16.9577 18.1814 16.6815 18.1814H15.7176H6.01193H4.99097C4.71482 18.1814 4.49097 17.9575 4.49097 17.6814V16.6604ZM6.0078 4.48314V8.28556V9.04605V9.06506V16.6509H15.7135V4.48314H11.3312H6.0078Z" fill="#404040"/>
<path fill-rule="evenodd" clip-rule="evenodd" d="M7.48669 6.24199V7.74067C7.48669 7.85113 7.57624 7.94067 7.68669 7.94067H14.1038C14.2143 7.94067 14.3038 7.85113 14.3038 7.74067V6.24199C14.3038 6.13154 14.2143 6.04199 14.1038 6.04199H7.68669C7.57624 6.04199 7.48669 6.13154 7.48669 6.24199ZM7.50385 10.5468V9.24683H10.5038V10.5468H7.50385ZM11.3038 10.5468V9.24683H14.3038V10.5468H11.3038ZM7.50385 14.7961V13.4961H14.3038V14.7961H7.50385ZM7.50385 11.3716V12.6716H14.3038V11.3716H7.50385Z" fill="#404040"/>
</svg>
