<svg width="120" height="120" viewBox="0 0 120 120" fill="none" xmlns="http://www.w3.org/2000/svg">
<path fill-rule="evenodd" clip-rule="evenodd" d="M98.6758 98.8343C99.5774 99.7334 101.037 99.7324 101.937 98.832L105.674 95.0956C106.576 94.1935 106.575 92.7306 105.671 91.8298L79.2691 65.5C81.2691 63 82.8525 60.125 84.0191 56.875C85.1858 53.625 85.7691 50.1667 85.7691 46.5C85.7691 37.4167 82.6233 29.7292 76.3316 23.4375C70.04 17.1458 62.3525 14 53.2691 14C44.1858 14 36.4983 17.1458 30.2066 23.4375C24.2643 29.3799 21.1281 36.5674 20.7982 45H30.8122C31.1378 39.3957 33.3109 34.5832 37.3316 30.5625C41.7066 26.1875 47.0191 24 53.2691 24C59.5191 24 64.8316 26.1875 69.2066 30.5625C73.5816 34.9375 75.7691 40.25 75.7691 46.5C75.7691 52.75 73.5816 58.0625 69.2066 62.4375C64.8316 66.8125 59.5191 69 53.2691 69C52.8155 69 52.3668 68.9885 51.923 68.9654V78.9766C52.3682 78.9922 52.817 79 53.2691 79C56.9358 79 60.3941 78.4167 63.6441 77.25C66.8941 76.0833 69.7691 74.5 72.2691 72.5L98.6758 98.8343Z" fill="current"/>
<path d="M40.2454 56.6498C39.5214 55.9479 38.368 55.9568 37.655 56.6699L26.3932 67.9317L15.1718 56.7103C14.4429 55.9815 13.2584 55.9906 12.5409 56.7307L10.496 58.8399C9.79406 59.564 9.80299 60.7173 10.5161 61.4304L21.7779 72.6922L11.5819 82.7598C10.8452 83.4873 10.8507 84.6782 11.594 85.3989L13.7029 87.4436C14.4237 88.1424 15.5708 88.1371 16.2851 87.4318L26.5383 77.3076L36.6059 87.5034C37.3333 88.2402 38.5243 88.2347 39.245 87.4914L41.2897 85.3824C41.9885 84.6616 41.9832 83.5146 41.2779 82.8002L31.1539 72.5471L42.3752 61.3257C43.1041 60.5968 43.0949 59.4123 42.3548 58.6948L40.2454 56.6498Z" fill="current"/>
</svg>
