<svg width="20" height="21" viewBox="0 0 20 21" fill="none" xmlns="http://www.w3.org/2000/svg">
<path fill-rule="evenodd" clip-rule="evenodd" d="M4.69371 13.432C4.50569 13.6196 4.40002 13.8743 4.40002 14.1399V16.2C4.40002 16.4761 4.62388 16.7 4.90002 16.7H6.96081C7.22603 16.7 7.48038 16.5946 7.66792 16.4071L15.1975 8.8775C15.3375 8.7375 15.4396 8.58292 15.5038 8.41375C15.5679 8.24458 15.6 8.0725 15.6 7.8975C15.6 7.71083 15.5679 7.53 15.5038 7.355C15.4396 7.18 15.3375 7.02833 15.1975 6.9L14.235 5.92C14.095 5.78 13.9375 5.675 13.7625 5.605C13.5875 5.535 13.4067 5.5 13.22 5.5C13.0334 5.5 12.8554 5.535 12.6863 5.605C12.5171 5.675 12.3684 5.77417 12.24 5.9025L4.69371 13.432ZM6.78002 15.3H5.80002V14.32L13.22 7.03302L14.1993 8.03757L6.78002 15.3Z" fill="#A3A3A3"/>
</svg>
