<svg width="16" height="16" viewBox="0 0 16 16" fill="none" xmlns="http://www.w3.org/2000/svg">
<path fill-rule="evenodd" clip-rule="evenodd" d="M0.840589 11.9199C1.08233 10.2654 2.37911 8.95337 4.02605 8.68871C4.22598 8.65658 4.43106 8.63988 4.64005 8.63988H7.20005C7.40905 8.63988 7.61415 8.65659 7.81409 8.68872C9.46101 8.9534 10.7578 10.2654 10.9995 11.9199C11.0262 12.1027 11.04 12.2897 11.04 12.4799V12.7199C11.04 12.9408 10.861 13.1199 10.64 13.1199H1.20005C0.979135 13.1199 0.800049 12.9408 0.800049 12.7199V12.4799C0.800049 12.2897 0.813879 12.1027 0.840589 11.9199ZM7.20005 9.83988C8.46593 9.83988 9.52371 10.7308 9.78054 11.9199H2.05956C2.31638 10.7308 3.37417 9.83988 4.64005 9.83988H7.20005Z" fill="#737373"/>
<path fill-rule="evenodd" clip-rule="evenodd" d="M4.64005 7.65738C4.53268 7.59527 4.43024 7.52559 4.33346 7.44906C3.74054 6.9802 3.36008 6.25447 3.36008 5.43988C3.36008 4.02603 4.50623 2.87988 5.92008 2.87988C7.33393 2.87988 8.48008 4.02603 8.48008 5.43988C8.48008 6.25447 8.09962 6.9802 7.50669 7.44906C7.4099 7.5256 7.30744 7.5953 7.20005 7.65742C6.82351 7.87523 6.38635 7.99988 5.92008 7.99988C5.45378 7.99988 5.0166 7.87521 4.64005 7.65738ZM7.28008 5.43988C7.28008 6.19099 6.67119 6.79988 5.92008 6.79988C5.16897 6.79988 4.56008 6.19099 4.56008 5.43988C4.56008 4.68878 5.16897 4.07988 5.92008 4.07988C6.67119 4.07988 7.28008 4.68878 7.28008 5.43988Z" fill="#737373"/>
<path d="M11.6696 6.3698L10.4717 5.17189C10.3165 5.01666 10.0651 5.01555 9.90853 5.1694L9.48792 5.58263C9.32935 5.73843 9.32822 5.99362 9.48541 6.15081L11.3868 8.05218C11.543 8.20839 11.7962 8.20839 11.9525 8.05218L15.3197 4.68494C15.4749 4.5297 15.476 4.27837 15.3222 4.12176L14.909 3.70115C14.7532 3.54258 14.498 3.54145 14.3408 3.69864L11.6696 6.3698Z" fill="#737373"/>
</svg>
