<svg width="24" height="24" viewBox="0 0 24 24" fill="none" xmlns="http://www.w3.org/2000/svg">
<path d="M6.16667 20.6667C5.70833 20.6667 5.31597 20.4853 4.98958 20.1227C4.66319 19.76 4.5 19.3241 4.5 18.8148V5.85185C4.5 5.34259 4.66319 4.90664 4.98958 4.54398C5.31597 4.18133 5.70833 4 6.16667 4H15.3333L19.5 8.62963V18.8148C19.5 19.3241 19.3368 19.76 19.0104 20.1227C18.684 20.4853 18.2917 20.6667 17.8333 20.6667H6.16667ZM6.16667 18.8148H17.8333V9.55556H14.5V5.85185H6.16667V18.8148ZM7.83333 16.963H16.1667V15.1111H7.83333V16.963ZM7.83333 9.55556H12V7.7037H7.83333V9.55556ZM7.83333 13.2593H16.1667V11.4074H7.83333V13.2593Z" fill="#0050F0"/>
</svg>
