<svg width="16" height="17" viewBox="0 0 16 17" fill="none" xmlns="http://www.w3.org/2000/svg">
<path d="M5.33333 6.86426C5.52222 6.86426 5.68056 6.80037 5.80833 6.67259C5.93611 6.54481 6 6.38648 6 6.19759C6 6.0087 5.93611 5.85037 5.80833 5.72259C5.68056 5.59481 5.52222 5.53092 5.33333 5.53092C5.14444 5.53092 4.98611 5.59481 4.85833 5.72259C4.73056 5.85037 4.66667 6.0087 4.66667 6.19759C4.66667 6.38648 4.73056 6.54481 4.85833 6.67259C4.98611 6.80037 5.14444 6.86426 5.33333 6.86426ZM5.33333 9.53092C5.52222 9.53092 5.68056 9.46704 5.80833 9.33926C5.93611 9.21148 6 9.05315 6 8.86426C6 8.67537 5.93611 8.51704 5.80833 8.38926C5.68056 8.26148 5.52222 8.19759 5.33333 8.19759C5.14444 8.19759 4.98611 8.26148 4.85833 8.38926C4.73056 8.51704 4.66667 8.67537 4.66667 8.86426C4.66667 9.05315 4.73056 9.21148 4.85833 9.33926C4.98611 9.46704 5.14444 9.53092 5.33333 9.53092ZM5.33333 12.1976C5.52222 12.1976 5.68056 12.1337 5.80833 12.0059C5.93611 11.8781 6 11.7198 6 11.5309C6 11.342 5.93611 11.1837 5.80833 11.0559C5.68056 10.9281 5.52222 10.8643 5.33333 10.8643C5.14444 10.8643 4.98611 10.9281 4.85833 11.0559C4.73056 11.1837 4.66667 11.342 4.66667 11.5309C4.66667 11.7198 4.73056 11.8781 4.85833 12.0059C4.98611 12.1337 5.14444 12.1976 5.33333 12.1976ZM3.33333 14.8643C2.96667 14.8643 2.65278 14.7337 2.39167 14.4726C2.13056 14.2115 2 13.8976 2 13.5309V4.19759C2 3.83092 2.13056 3.51704 2.39167 3.25592C2.65278 2.99481 2.96667 2.86426 3.33333 2.86426H10.6667L14 6.19759V13.5309C14 13.8976 13.8694 14.2115 13.6083 14.4726C13.3472 14.7337 13.0333 14.8643 12.6667 14.8643H3.33333ZM3.33333 13.5309H12.6667V6.86426H10V4.19759H3.33333V13.5309Z" fill="#737373"/>
</svg>
