<svg width="24" height="24" viewBox="0 0 24 24" fill="none" xmlns="http://www.w3.org/2000/svg">
<path d="M10.7776 17.833C10.5567 17.833 10.3776 17.6539 10.3776 17.433V16.5663C10.3776 16.3454 10.5567 16.1663 10.7776 16.1663H13.92C14.795 16.1663 15.5554 15.8886 16.2013 15.333C16.8471 14.7775 17.17 14.083 17.17 13.2497C17.17 12.4163 16.8471 11.7219 16.2013 11.1663C15.5554 10.6108 14.795 10.333 13.92 10.333H8.32975L10.4964 12.4997L9.32975 13.6663L5.44593 9.78252C5.28972 9.62631 5.28972 9.37304 5.44593 9.21683L9.32975 5.33301L10.4964 6.49967L8.32975 8.66634H13.92C15.2672 8.66634 16.4235 9.10384 17.3888 9.97884C18.354 10.8538 18.8367 11.9441 18.8367 13.2497C18.8367 14.5552 18.354 15.6455 17.3888 16.5205C16.4235 17.3955 15.2672 17.833 13.92 17.833H10.7776Z" fill="#0050F0"/>
</svg>
