<svg width="24" height="24" viewBox="0 0 24 24" fill="none" xmlns="http://www.w3.org/2000/svg">
<path d="M17.4522 17.2999C15.7722 17.2999 14.2222 16.5099 13.2122 15.1199C12.9722 14.7899 13.0422 14.3199 13.3722 14.0699C13.7022 13.8199 14.1722 13.8999 14.4222 14.2299C15.1522 15.2199 16.2522 15.7899 17.4522 15.7899C19.5422 15.7899 21.2522 14.0899 21.2522 11.9899C21.2522 9.88993 19.5522 8.18994 17.4522 8.18994C16.0322 8.18994 14.6922 8.94991 13.9622 10.1599L11.3122 14.5699C10.3122 16.2399 8.48221 17.27 6.54221 17.27C3.62221 17.27 1.24219 14.8899 1.24219 11.9699C1.24219 9.04991 3.62221 6.66992 6.54221 6.66992C8.22221 6.66992 9.7722 7.45991 10.7822 8.84991C11.0222 9.17991 10.9522 9.64996 10.6222 9.89996C10.2822 10.14 9.8222 10.0699 9.5722 9.73993C8.8422 8.74993 7.74221 8.17993 6.54221 8.17993C4.45221 8.17993 2.74219 9.87992 2.74219 11.9799C2.74219 14.0799 4.44221 15.78 6.54221 15.78C7.96221 15.78 9.3022 15.0199 10.0322 13.8099L12.6822 9.39996C13.6822 7.72996 15.5122 6.69995 17.4522 6.69995C20.3722 6.69995 22.7522 9.07994 22.7522 11.9999C22.7522 14.9199 20.3722 17.2999 17.4522 17.2999Z" fill="#0050F0"/>
</svg>
