<svg width="24" height="24" viewBox="0 0 24 24" fill="none" xmlns="http://www.w3.org/2000/svg">
<path d="M16.1 14L14.65 12.55C14.8 11.7667 14.575 11.0333 13.975 10.35C13.375 9.66667 12.6 9.4 11.65 9.55L10.2 8.1C10.4833 7.96667 10.7708 7.86667 11.0625 7.8C11.3542 7.73333 11.6667 7.7 12 7.7C13.25 7.7 14.3125 8.1375 15.1875 9.0125C16.0625 9.8875 16.5 10.95 16.5 12.2C16.5 12.5333 16.4667 12.8458 16.4 13.1375C16.3333 13.4292 16.2333 13.7167 16.1 14ZM19.3 17.15L17.85 15.75C18.4833 15.2667 19.0458 14.7375 19.5375 14.1625C20.0292 13.5875 20.45 12.9333 20.8 12.2C19.9667 10.5167 18.7708 9.17917 17.2125 8.1875C15.6542 7.19583 13.9167 6.7 12 6.7C11.5167 6.7 11.0417 6.73333 10.575 6.8C10.1083 6.86667 9.65 6.96667 9.2 7.1L7.65 5.55C8.33333 5.26667 9.03333 5.05417 9.75 4.9125C10.4667 4.77083 11.2167 4.7 12 4.7C14.5167 4.7 16.7583 5.39583 18.725 6.7875C20.6917 8.17917 22.1167 9.98333 23 12.2C22.6167 13.1833 22.1125 14.0958 21.4875 14.9375C20.8625 15.7792 20.1333 16.5167 19.3 17.15ZM19.8 23.3L15.6 19.15C15.0167 19.3333 14.4292 19.4708 13.8375 19.5625C13.2458 19.6542 12.6333 19.7 12 19.7C9.48333 19.7 7.24167 19.0042 5.275 17.6125C3.30833 16.2208 1.88333 14.4167 1 12.2C1.35 11.3167 1.79167 10.4958 2.325 9.7375C2.85833 8.97917 3.46667 8.3 4.15 7.7L1.4 4.9L2.8 3.5L21.2 21.9L19.8 23.3ZM5.55 9.1C5.06667 9.53333 4.625 10.0083 4.225 10.525C3.825 11.0417 3.48333 11.6 3.2 12.2C4.03333 13.8833 5.22917 15.2208 6.7875 16.2125C8.34583 17.2042 10.0833 17.7 12 17.7C12.3333 17.7 12.6583 17.6792 12.975 17.6375C13.2917 17.5958 13.6167 17.55 13.95 17.5L13.05 16.55C12.8667 16.6 12.6917 16.6375 12.525 16.6625C12.3583 16.6875 12.1833 16.7 12 16.7C10.75 16.7 9.6875 16.2625 8.8125 15.3875C7.9375 14.5125 7.5 13.45 7.5 12.2C7.5 12.0167 7.5125 11.8417 7.5375 11.675C7.5625 11.5083 7.6 11.3333 7.65 11.15L5.55 9.1Z" fill="#A3A3A3"/>
</svg>
