<svg width="32" height="32" viewBox="0 0 32 32" fill="none" xmlns="http://www.w3.org/2000/svg">
<path fill-rule="evenodd" clip-rule="evenodd" d="M26.8253 6.83787C28.0167 7.15524 28.9542 8.09759 29.2716 9.29873C29.8477 11.4715 29.8428 16.0026 29.8428 16.0026C29.8428 16.0026 29.8428 20.5337 29.2667 22.7065C28.9493 23.9027 28.0118 24.8451 26.8205 25.1673C24.6623 25.7484 16.0054 25.7484 16.0054 25.7484C16.0054 25.7484 7.34846 25.7484 5.19033 25.1673C3.99896 24.85 3.06149 23.9076 2.74412 22.7065C2.16797 20.5337 2.16797 16.0026 2.16797 16.0026C2.16797 16.0026 2.16797 11.4715 2.749 9.29384C3.06638 8.09759 4.00384 7.15524 5.19521 6.83299C7.35334 6.25195 16.0103 6.25195 16.0103 6.25195C16.0103 6.25195 24.6623 6.25195 26.8253 6.83787ZM13.1758 11.8867V20.1189L20.4119 16.0028L13.1758 11.8867Z" fill="#737373"/>
</svg>
