<svg width="20" height="21" viewBox="0 0 20 21" fill="none" xmlns="http://www.w3.org/2000/svg">
<path fill-rule="evenodd" clip-rule="evenodd" d="M4.9227 16.4329V4.26511H14.6284V8.54831C15.1424 8.60931 15.634 8.74364 16.0923 8.94055V3.24414C16.0923 2.968 15.8685 2.74414 15.5923 2.74414H3.90173C3.62559 2.74414 3.40173 2.968 3.40173 3.24414V17.4538C3.40173 17.73 3.62559 17.9538 3.90173 17.9538H10.6392C10.1226 17.533 9.68653 17.0172 9.35769 16.4329H4.9227ZM6.44019 7.74043V6.24175C6.44019 6.13129 6.52973 6.04175 6.64019 6.04175H12.9393C13.0498 6.04175 13.1393 6.13129 13.1393 6.24175V7.74043C13.1393 7.85089 13.0498 7.94043 12.9393 7.94043H6.64019C6.52973 7.94043 6.44019 7.85089 6.44019 7.74043ZM6.44366 11.6698C6.44366 11.7803 6.53321 11.8698 6.64366 11.8698H9.10536C9.21943 11.5783 9.35885 11.3058 9.52362 11.0523C9.6884 10.7988 9.87852 10.5643 10.094 10.3489H6.64366C6.53321 10.3489 6.44366 10.4384 6.44366 10.5489V11.6698ZM6.44366 14.7118C6.44366 14.8222 6.53321 14.9118 6.64366 14.9118H8.8582C8.79483 14.6583 8.75363 14.4048 8.73462 14.1513C8.71561 13.8978 8.71878 13.6443 8.74413 13.3908H6.64366C6.53321 13.3908 6.44366 13.4804 6.44366 13.5908V14.7118ZM13.6683 15.6723C14.2006 15.6723 14.6506 15.4885 15.0181 15.1209C15.3857 14.7533 15.5695 14.3034 15.5695 13.7711C15.5695 13.2387 15.3857 12.7888 15.0181 12.4212C14.6506 12.0536 14.2006 11.8698 13.6683 11.8698C13.1359 11.8698 12.686 12.0536 12.3184 12.4212C11.9508 12.7888 11.7671 13.2387 11.7671 13.7711C11.7671 14.3034 11.9508 14.7533 12.3184 15.1209C12.686 15.4885 13.1359 15.6723 13.6683 15.6723ZM17.8296 18.4314C17.6734 18.5876 17.4201 18.5876 17.2639 18.4314L15.4934 16.6609C15.2273 16.8383 14.9389 16.9714 14.6284 17.0601C14.3178 17.1489 13.9978 17.1932 13.6683 17.1932C12.7177 17.1932 11.9096 16.8605 11.2442 16.1951C10.5788 15.5297 10.2461 14.7217 10.2461 13.7711C10.2461 12.8204 10.5788 12.0124 11.2442 11.347C11.9096 10.6816 12.7177 10.3489 13.6683 10.3489C14.6189 10.3489 15.4269 10.6816 16.0923 11.347C16.7577 12.0124 17.0904 12.8204 17.0904 13.7711C17.0904 14.1006 17.0461 14.4206 16.9574 14.7312C16.8686 15.0417 16.7355 15.33 16.5581 15.5962L18.3286 17.3667C18.4848 17.5229 18.4848 17.7762 18.3286 17.9324L17.8296 18.4314Z" fill="#A3A3A3"/>
</svg>
