<svg width="202" height="18" viewBox="0 0 202 18" fill="none" xmlns="http://www.w3.org/2000/svg">
<path fill-rule="evenodd" clip-rule="evenodd" d="M14 3H2V15H14V3ZM11.6847 7.38547L10.7419 6.44266L7.04135 10.1432L5.25807 8.35994L4.31525 9.30274L7.04134 12.0289L11.6847 7.38547Z" fill="#22C55E"/>
<path d="M25.293 4.04688C26.1484 4.04102 26.8926 4.35742 27.3906 4.89062H29.9219V3.44922H31.2227V9.68359H29.9219V8.33594H27.3848C26.8809 8.85742 26.1426 9.17383 25.293 9.16797C23.6934 9.17383 22.4922 8.10156 22.4922 6.61328C22.4922 5.11328 23.6934 4.04102 25.293 4.04688ZM23.7344 6.61328C23.7344 7.48047 24.3848 8.06641 25.293 8.06641C26.1719 8.06641 26.8223 7.48047 26.8281 6.61328C26.8223 5.7168 26.1719 5.16016 25.293 5.16016C24.3848 5.16016 23.7344 5.7168 23.7344 6.61328ZM24.0391 11.9688C24.0273 10.6621 25.416 9.90039 27.6367 9.90625C29.8633 9.90039 31.252 10.6621 31.2578 11.9688C31.252 13.2695 29.8633 14.0312 27.6367 14.0312C25.416 14.0312 24.0273 13.2695 24.0391 11.9688ZM25.3164 11.9688C25.3047 12.6426 26.166 13.0059 27.6367 13.0117C29.1367 13.0059 29.9805 12.6426 29.9805 11.9688C29.9805 11.2773 29.1367 10.9082 27.6367 10.9023C26.166 10.9082 25.3047 11.2773 25.3164 11.9688ZM27.9766 5.93359C28.0352 6.15039 28.0703 6.37305 28.0703 6.61328C28.0703 6.84766 28.0352 7.07031 27.9824 7.28125H29.9219V5.93359H27.9766ZM42.3906 8.74609V9.78906H38.3008V11.7344H37.0117V9.78906H32.7109V8.74609H42.3906ZM33.8828 13.832V10.7617H35.1836V12.7773H41.3242V13.832H33.8828ZM33.9414 7.76172V3.92969H41.1484V7.76172H33.9414ZM35.207 6.74219H39.8594V4.94922H35.207V6.74219ZM49.0117 4.55078V5.30078C49.0117 6.24414 49.0117 7.58008 48.7188 9.40234L47.4297 9.29688C47.6875 7.69141 47.7168 6.50195 47.7227 5.59375H43.5625V4.55078H49.0117ZM43 10.7734C43.627 10.7676 44.3242 10.7617 45.0508 10.7441V7.57422H46.3398V10.7031C47.418 10.6562 48.5254 10.5801 49.5391 10.457L49.6094 11.4297C47.4238 11.7871 44.998 11.8281 43.1289 11.8164L43 10.7734ZM50.0898 14.043V3.44922H51.4023V7.76172H52.9375V8.86328H51.4023V14.043H50.0898ZM65.9688 8.16016V9.21484H61.7617V10.293H60.4727V9.21484H56.3125V8.16016H65.9688ZM56.8164 6.53125C59.0254 6.2793 60.4668 5.14258 60.4727 3.97656V3.57812H61.8086V3.97656C61.8086 5.13086 63.2559 6.2793 65.4648 6.53125L65.0078 7.53906C63.2324 7.31641 61.8262 6.54883 61.1406 5.48828C60.4551 6.55469 59.043 7.31055 57.2734 7.53906L56.8164 6.53125ZM56.957 13C59.125 12.8125 60.4375 11.9102 60.4375 10.9727V10.7266H61.7734V10.9727C61.7793 11.9453 63.0625 12.8125 65.2539 13L64.8555 13.9844C63.0801 13.8145 61.7441 13.2051 61.1055 12.3027C60.4609 13.1875 59.1426 13.8203 57.3906 13.9844L56.957 13ZM70.4805 6.46094C70.4746 8.0957 71.459 9.95898 73.1289 10.7383L72.4023 11.7695C71.207 11.207 70.3223 10.0703 69.8477 8.74609C69.3672 10.1992 68.4414 11.4414 67.2227 12.0273L66.4609 11.0078C68.1484 10.2051 69.1738 8.22461 69.1797 6.46094V5.57031H66.8711V4.49219H72.6953V5.57031H70.4805V6.46094ZM73.6797 14.043V3.44922H74.9805V7.57422H76.6094V8.66406H74.9805V14.043H73.6797ZM85.3516 3.44922V7.58594H86.9219V8.67578H85.3516V14.0195H84.0508V3.44922H85.3516ZM76.9961 11.125C79.5742 9.83594 80.9688 8.04297 81.2266 5.62891H77.5703V4.55078H82.5508C82.5449 7.66211 81.2559 10.3984 77.7344 12.1328L76.9961 11.125ZM99.9531 11.7227V12.8125H90.2734V11.7227H94.4336V9.63672H91.1055V8.60547H92.5938V5.44141H91.0703V4.38672H99.1094V5.44141H97.5625V8.60547H99.0742V9.63672H95.7227V11.7227H99.9531ZM93.8945 8.60547H96.2734V5.44141H93.8945V8.60547ZM109 3.44922V6.13281H110.477V7.22266H109V9.83594H107.699V3.44922H109ZM100.656 5.51172V4.46875H103.152V3.37891H104.453V4.46875H106.938V5.51172H100.656ZM101.195 7.79688C101.195 6.66602 102.25 5.89844 103.797 5.89844C105.332 5.89844 106.381 6.66602 106.387 7.79688C106.381 8.93945 105.326 9.69531 103.797 9.69531C102.25 9.69531 101.195 8.93945 101.195 7.79688ZM102.156 13.9141V10.3398H109V13.9141H102.156ZM102.461 7.79688C102.455 8.38867 102.994 8.72266 103.797 8.72266C104.6 8.72266 105.145 8.38867 105.145 7.79688C105.145 7.22266 104.6 6.88281 103.797 6.88281C102.994 6.88281 102.455 7.22266 102.461 7.79688ZM103.445 12.8594H107.711V11.3711H103.445V12.8594ZM117.32 7.84375V8.89844H115.176V10.7441C116.102 10.709 117.027 10.6445 117.906 10.5508L118.012 11.5117C115.68 11.8574 113.225 11.8809 111.227 11.8867L111.062 10.8086C111.936 10.8145 112.891 10.8086 113.875 10.791V8.89844H111.801V4.42188H117.273V5.45312H113.09V7.84375H117.32ZM118.539 14.0547V3.44922H119.84V14.0547H118.539ZM124.281 4.22266C125.711 4.22266 126.771 5.41797 126.959 7.35156H128.98V3.44922H130.27V14.0547H128.98V8.40625H126.971C126.83 10.4512 125.752 11.7109 124.281 11.7109C122.688 11.7109 121.557 10.2637 121.562 7.96094C121.557 5.67578 122.688 4.22266 124.281 4.22266ZM122.816 7.96094C122.811 9.58984 123.408 10.5332 124.281 10.5391C125.16 10.5332 125.752 9.58984 125.758 7.96094C125.752 6.34375 125.16 5.39453 124.281 5.39453C123.408 5.39453 122.811 6.34375 122.816 7.96094ZM134.605 4.22266C136.199 4.22266 137.348 5.67578 137.359 7.96094C137.348 10.2637 136.199 11.7109 134.605 11.7109C132.994 11.7109 131.846 10.2637 131.852 7.96094C131.846 5.67578 132.994 4.22266 134.605 4.22266ZM133.105 7.96094C133.1 9.58984 133.715 10.5332 134.605 10.5391C135.502 10.5332 136.1 9.58984 136.105 7.96094C136.1 6.34375 135.502 5.39453 134.605 5.39453C133.715 5.39453 133.1 6.34375 133.105 7.96094ZM138.754 14.043V3.44922H140.055V5.98047H141.625V7.07031H140.055V9.10938H141.625V10.1758H140.055V14.043H138.754ZM150.145 5.13672V6.17969H144.953V5.13672H146.922V3.75391H148.211V5.13672H150.145ZM145.258 9.20312C145.246 7.76172 146.225 6.73633 147.566 6.74219C148.914 6.73633 149.875 7.76172 149.875 9.20312C149.875 10.6738 148.914 11.6992 147.566 11.6992C146.225 11.6992 145.246 10.6738 145.258 9.20312ZM146.406 9.20312C146.4 10.0586 146.881 10.5918 147.566 10.5859C148.246 10.5918 148.727 10.0586 148.727 9.20312C148.727 8.37109 148.246 7.82031 147.566 7.82031C146.881 7.82031 146.4 8.37109 146.406 9.20312ZM150.59 13.5625V3.67188H151.809V7.80859H152.84V3.44922H154.082V14.043H152.84V8.86328H151.809V13.5625H150.59ZM165.027 11.6875V12.7539H155.348V11.6875H157.586V9.00977C156.742 8.52344 156.232 7.76172 156.238 6.82422C156.232 5.13672 157.885 4.02344 160.164 4.02344C162.455 4.02344 164.119 5.13672 164.113 6.82422C164.119 7.75 163.621 8.49414 162.801 8.98047V11.6875H165.027ZM157.516 6.82422C157.51 7.9082 158.582 8.59961 160.164 8.59375C161.74 8.59961 162.836 7.9082 162.836 6.82422C162.836 5.72266 161.74 5.04883 160.164 5.05469C158.582 5.04883 157.51 5.72266 157.516 6.82422ZM158.875 11.6875H161.477V9.47852C161.072 9.56641 160.633 9.61328 160.164 9.61328C159.707 9.61328 159.273 9.56641 158.875 9.48438V11.6875Z" fill="#199145"/>
</svg>
