<svg width="72" height="72" viewBox="0 0 72 72" fill="none" xmlns="http://www.w3.org/2000/svg">
<circle cx="36" cy="36" r="28" stroke="#DBE4F6" stroke-width="8"/>
<path d="M64.0638 36C66.2377 36 68.0249 34.2312 67.7582 32.0737C67.4055 29.2203 66.669 26.4215 65.5641 23.7541C63.956 19.8717 61.5989 16.3441 58.6274 13.3726C55.6559 10.4011 52.1283 8.04401 48.2459 6.43585C45.5785 5.33101 42.7797 4.59455 39.9263 4.24178C37.7688 3.97505 36 5.76228 36 7.93615V7.93615C36 10.11 37.7737 11.8396 39.9187 12.1927C41.7382 12.4922 43.5217 12.9999 45.2333 13.7089C48.1606 14.9214 50.8204 16.6987 53.0609 18.9391C55.3013 21.1796 57.0786 23.8394 58.2911 26.7667C59.0001 28.4783 59.5078 30.2618 59.8073 32.0813C60.1604 34.2263 61.89 36 64.0638 36V36Z" fill="#0050F0"/>
</svg>
