<svg width="24" height="24" viewBox="0 0 24 24" fill="none" xmlns="http://www.w3.org/2000/svg">
<rect width="24" height="24" fill="#0050F0"/>
<path fill-rule="evenodd" clip-rule="evenodd" d="M18.1789 11.1379C16.6607 8.48157 15.0913 5.97888 13.2884 9.65009C13.0418 10.1221 12.8621 11.0393 12.4594 11.0393V11.0346C12.0567 11.0346 11.877 10.1174 11.6304 9.64543C9.82748 5.97422 8.25807 8.47691 6.73981 11.1333C6.62556 11.3336 6.5158 11.5248 6.42188 11.691C9.90124 9.48837 9.60831 16.1425 12.4594 16.1954V16.2C15.3105 16.1472 15.0175 9.49303 18.4969 11.6956C18.403 11.5295 18.2933 11.3383 18.1789 11.1379Z" fill="white"/>
<path d="M6.43263 11.6837C8.1113 10.6279 8.90945 11.6397 9.60942 12.9704C9.03019 14.0251 8.647 14.6687 8.45978 14.9013C8.10677 15.34 7.72166 15.6721 7.24802 15.8638C6.2523 16.3317 5.01448 16.3536 4.05859 15.7751L6.43263 11.6837Z" fill="url(#paint0_linear_181_725)"/>
<path fill-rule="evenodd" clip-rule="evenodd" d="M18.365 16.2C19.2349 16.2 19.94 15.4949 19.94 14.625C19.94 13.7552 19.2349 13.05 18.365 13.05C17.4952 13.05 16.79 13.7552 16.79 14.625C16.79 15.4949 17.4952 16.2 18.365 16.2Z" fill="white"/>
<defs>
<linearGradient id="paint0_linear_181_725" x1="8.58672" y1="9.10564" x2="5.74919" y2="12.1189" gradientUnits="userSpaceOnUse">
<stop stop-color="#919EAB"/>
<stop offset="1" stop-color="white"/>
</linearGradient>
</defs>
</svg>
