<svg width="24" height="25" viewBox="0 0 24 25" fill="none" xmlns="http://www.w3.org/2000/svg">
<path d="M4.34271 4.33594C4.06657 4.33594 3.84271 4.5598 3.84271 4.83594V20.5088C3.84271 20.785 4.06657 21.0088 4.34271 21.0088H13.0438L11.3661 19.3311H5.50545V5.99282H16.1448V14.9693L17.7541 13.3599V4.83594C17.7541 4.5598 17.5303 4.33594 17.2541 4.33594H4.34271Z" fill="white"/>
<path d="M12.2317 15.8731L10.8067 17.2981H7.3454C7.23494 17.2981 7.1454 17.2086 7.1454 17.0981V16.0731C7.1454 15.9626 7.23494 15.8731 7.3454 15.8731H12.2317Z" fill="white"/>
<path d="M14.3606 13.5442C14.4711 13.5442 14.5606 13.6337 14.5606 13.7442V14.7693C14.5606 14.8797 14.4711 14.9693 14.3606 14.9693H7.3454C7.23494 14.9693 7.1454 14.8797 7.1454 14.7693V13.7442C7.1454 13.6337 7.23494 13.5442 7.3454 13.5442H14.3606Z" fill="white"/>
<path d="M7.12659 7.9019V9.58324C7.12659 9.6937 7.21613 9.78324 7.32659 9.78324H14.3995C14.51 9.78324 14.5995 9.6937 14.5995 9.58324V7.9019C14.5995 7.79145 14.51 7.7019 14.3995 7.7019H7.32659C7.21613 7.7019 7.12659 7.79145 7.12659 7.9019Z" fill="white"/>
<path d="M11.5109 11.215C11.4005 11.215 11.3109 11.3046 11.3109 11.415V12.4401C11.3109 12.5506 11.4005 12.6401 11.5109 12.6401H14.3995C14.51 12.6401 14.5995 12.5506 14.5995 12.4401V11.415C14.5995 11.3046 14.51 11.215 14.3995 11.215H11.5109Z" fill="white"/>
<path d="M7.3454 11.2151C7.23494 11.2151 7.1454 11.3046 7.1454 11.4151V12.4402C7.1454 12.5506 7.23494 12.6402 7.3454 12.6402H10.234C10.3445 12.6402 10.434 12.5506 10.434 12.4402V11.4151C10.434 11.3046 10.3445 11.2151 10.234 11.2151H7.3454Z" fill="white"/>
<path d="M13.587 16.8056L15.2283 18.4469L18.7912 14.884C18.9484 14.7268 19.2036 14.7279 19.3594 14.8865L20.0663 15.6061C20.2202 15.7627 20.2191 16.0141 20.0638 16.1693L15.5111 20.722C15.3549 20.8782 15.1016 20.8782 14.9454 20.722L12.308 18.0846C12.1518 17.9284 12.1518 17.6751 12.308 17.5189L13.0213 16.8056C13.1775 16.6494 13.4308 16.6494 13.587 16.8056Z" fill="white"/>
</svg>
